<svg xmlns="http://www.w3.org/2000/svg" width="100%" height="2" viewBox="0 0 109 2" fill="none" class="absolute bottom-0 left-0 right-0 opacity-0 group-[.active]:opacity-100 transition-opacity duration-300 opacity-100" preserveAspectRatio="none"><path d="M103.204 0.509145C103.333 0.506014 103.515 0.541374 103.667 0.545944C104.303 0.565857 104.538 0.591475 105.114 0.613641C105.967 0.644396 108.5 0.663821 108.5 0.829886C108.5 0.82989 108.5 0.829894 108.5 0.829898C108.5 0.831555 108.5 0.833228 108.499 0.834919C108.49 0.866865 108.275 0.900665 108.243 0.937685C108.211 0.974734 108.235 1.21282 107.929 1.23122C107.485 1.25649 106.421 1.20433 106.185 1.20882C106.023 1.21259 105.824 1.23954 105.617 1.24661C104.95 1.26978 104.601 1.25356 104 1.33536C103.76 1.30023 103.52 1.26382 103.279 1.22616C102.966 1.24811 102.491 1.19872 102.3 1.20294C102.144 1.20665 102.052 1.24065 101.889 1.24382C101.707 1.24763 101.426 1.21354 101.094 1.22172C100.549 1.23498 100.452 1.32809 100.125 1.34405C99.7862 1.36083 99.2591 1.31487 98.8266 1.35374C98.7724 1.36508 98.7181 1.37649 98.6639 1.38795C98.7027 1.41182 98.7416 1.4356 98.7805 1.45929C98.5626 1.47397 98.469 1.42523 98.2688 1.42694C98.0333 1.42894 97.9131 1.47906 97.7546 1.48127C97.6248 1.48305 97.4488 1.44621 97.2804 1.4509C97.035 1.45763 97.0887 1.51449 96.9566 1.52736C96.9039 1.53219 95.9297 1.58023 95.8747 1.58178C95.4567 1.59108 95.4203 1.50905 95.087 1.5062C94.1625 1.49828 93.2135 1.57996 92.3584 1.62025C91.9766 1.63801 91.5781 1.63877 91.1974 1.62939C91.7971 1.38908 90.47 1.21761 90.9663 1.58223C90.5427 1.53468 90.2423 1.63901 89.8407 1.62736C89.581 1.61954 89.4012 1.56888 89.0304 1.57442C88.3723 1.58376 87.6524 1.74906 87.4631 1.46877C86.6906 1.52609 86.0215 1.42616 85.7431 1.68576C85.5439 1.70413 85.0334 1.55553 84.81 1.53596C84.5986 1.51852 82.9774 1.45933 82.7121 1.45652C82.4469 1.45428 81.9826 1.45273 81.7592 1.47815C81.4785 1.50896 81.2824 1.79724 80.7828 1.46602C80.2018 1.49676 79.9948 1.48878 79.4545 1.45221C79.3567 1.44559 79.3456 1.39492 79.2885 1.39515C79.1708 1.39569 78.9705 1.43429 78.7603 1.44003C78.4147 1.4495 78.2175 1.34229 78.256 1.50724C78.0282 1.53626 77.8004 1.56548 77.5726 1.5949C77.4926 1.56331 77.4127 1.53163 77.3328 1.49987C77.211 1.53564 77.0891 1.57154 76.9673 1.60757C77.1104 1.3644 76.2531 1.51191 76.5315 1.65033C76.0898 1.60297 75.6482 1.55482 75.2065 1.50594C75.2681 1.22508 74.2368 1.47723 74.3236 1.63139C74.2731 1.63146 74.2225 1.63153 74.172 1.6316C73.7296 1.55868 73.3233 1.62268 72.784 1.57433C72.2448 1.52567 72.2954 1.49733 72.1314 1.36529C72.0045 1.37326 71.8776 1.38125 71.7507 1.38926C71.0849 1.75737 71.2026 1.12257 70.0624 1.40739C69.6981 1.17618 68.8002 1.29916 68.2048 1.3721C68.1355 1.38053 68.1343 1.42616 68.042 1.44048C67.8164 1.47501 67.2408 1.41759 67.2605 1.5655C67.0612 1.52333 66.862 1.48101 66.6627 1.43853C66.4998 1.46591 66.337 1.49334 66.1741 1.52084C66.1749 1.56729 66.1757 1.61374 66.1766 1.66019C65.8486 1.5029 65.3332 1.56503 65.079 1.52769C65.0284 1.5201 65.0175 1.4557 64.8603 1.43842C64.6765 1.41789 64.334 1.43765 64.115 1.41783C64.0298 1.48965 63.9447 1.56155 63.8595 1.63352C63.4679 1.67353 63.3302 1.48414 63.1002 1.46974C63.0588 1.46725 62.3034 1.48219 62.2627 1.48632C61.9294 1.51907 62.0238 1.68148 61.0601 1.64852C60.8885 1.64253 60.7496 1.58635 60.5945 1.58431C60.3205 1.5806 59.4948 1.71001 59.4298 1.8288C59.0975 1.68094 58.2082 1.74273 57.9463 1.70001C57.8672 1.68687 57.8494 1.59207 57.6064 1.57207C57.4094 1.55575 56.902 1.63209 56.6522 1.61951C56.387 1.60581 56.2923 1.52605 56.1735 1.52045C56.0612 1.51524 55.9577 1.57971 55.8048 1.57939C55.3272 1.5773 54.8947 1.4736 54.5173 1.47169C54.5115 1.47166 54.5058 1.47165 54.5 1.47166C53.9612 1.47272 53.4844 1.66035 53.0325 1.74393C52.9191 1.73151 52.8078 1.69052 52.6889 1.69008C51.2186 1.68333 49.56 1.64616 48.0853 1.60317C47.4007 1.58315 45.6983 1.32497 46.1527 1.75156C45.9148 1.82538 44.1849 1.64901 43.8559 1.64569C43.5269 1.6422 43.2661 1.71678 43.0076 1.71692C42.2273 1.7172 41.6778 1.66147 40.7281 1.72222C40.4827 1.73811 40.2199 1.82464 40.0746 1.82281C39.8997 1.82041 39.7114 1.73474 39.4847 1.72829C38.9443 1.71361 37.9374 1.73588 37.419 1.71845C37.3243 1.7151 37.2911 1.64186 37.1557 1.6184C36.6286 1.52683 36.0377 1.53227 36.1422 1.76356C35.4665 1.62844 34.8415 1.74395 34.2153 1.74631C32.8914 1.75115 30.4797 1.68173 29.3263 1.76144C28.599 1.8116 28.6176 1.90625 27.5469 1.81256C27.3092 1.79187 27.0726 1.76507 26.7843 1.74074C26.1086 1.68269 25.4887 1.50948 24.9736 1.70665C24.2231 1.64654 23.6254 1.67554 23.0686 1.50268C23.0029 1.5423 22.9373 1.58179 22.8717 1.62114C22.7797 1.62114 22.6876 1.62114 22.5956 1.62112C22.5669 1.5828 22.5382 1.54452 22.5095 1.50631C21.8504 1.49107 21.0141 1.63545 20.4562 1.62673C19.5207 1.61333 17.1113 1.52658 16.2242 1.47222C15.7533 1.44336 15.728 1.51301 15.4584 1.366C15.353 1.37507 15.2477 1.38406 15.1424 1.39296C15.0764 1.42362 15.0105 1.45412 14.9446 1.48446C14.3404 1.47792 13.6238 1.42207 13.0482 1.41612C11.9994 1.40641 10.4245 1.4606 9.37123 1.39697C9.10714 1.38113 8.77702 1.32349 8.51841 1.32128C8.14202 1.31796 8.05054 1.40321 7.5729 1.3973C6.74968 1.38563 5.21658 1.27225 4.43849 1.27087C4.20739 1.26994 4.09956 1.29574 3.93999 1.29631C3.27085 1.29882 2.72148 1.28937 2.07986 1.31656C1.39092 1.24202 1.45044 1.16563 1.23693 1.08536C1.07513 1.02418 0.578969 0.891895 0.508537 0.843963C0.459063 0.809773 0.643784 0.762298 0.574456 0.724683C1.39986 0.679493 1.74663 0.706168 2.41687 0.757807C3.65462 0.739416 4.89236 0.721119 6.13011 0.702968C6.24272 0.729429 6.35534 0.756286 6.46794 0.783534C6.46794 0.783596 6.46794 0.783658 6.46794 0.78372C6.94328 0.812633 7.14474 0.737032 7.4011 0.716799C9.85534 0.517766 14.6858 0.585811 17.3877 0.596422C17.9699 0.597023 19.8639 0.523925 20.2634 0.588424C20.3668 0.605269 20.3956 0.669742 20.5056 0.671883C21.4888 0.627094 22.4719 0.580375 23.455 0.532011C25.4768 0.624055 27.5668 0.52307 29.604 0.490854C35.1155 0.408369 40.572 0.313891 45.9933 0.320409C47.041 0.321912 48.3706 0.255113 49.3963 0.294862C49.8244 0.311328 50.0027 0.448916 50.5651 0.345572C50.571 0.382714 50.5769 0.419857 50.5828 0.457002C51.0736 0.411721 51.3872 0.326786 51.9374 0.317743C52.4008 0.310223 53.6266 0.304151 54.0361 0.3184C54.2485 0.325497 54.1693 0.39515 54.3673 0.394787C54.4067 0.394655 54.4513 0.39324 54.5 0.390843C54.871 0.372583 55.4849 0.297477 55.8983 0.297666C56.322 0.297842 57.0363 0.378441 57.3621 0.367089C58.5352 0.326715 59.8132 0.210299 61.0634 0.244718C61.4087 0.254426 61.8529 0.344707 61.9611 0.342422C62.1723 0.337677 62.2353 0.251224 62.3772 0.24047C63.098 0.186214 64.2217 0.292203 64.9282 0.298368C67.2306 0.318659 69.6697 0.292573 71.9621 0.320473C73.4104 0.337332 75.8172 0.339153 77.1544 0.406926C77.4427 0.421485 77.3659 0.506292 77.608 0.507613C77.8764 0.509027 78.0218 0.452633 78.1473 0.44884C79.0157 0.421327 80.9327 0.380573 81.7526 0.443192C81.9087 0.455152 82.022 0.519064 82.1155 0.519441C82.1629 0.519747 82.2698 0.477559 82.4184 0.474333C83.7302 0.445816 84.6867 0.479202 85.9722 0.503747C88.4341 0.548903 91.2866 0.507496 93.8729 0.572316C94.4363 0.586356 94.8228 0.687287 94.902 0.686758C95.0759 0.686207 95.1872 0.622318 95.5394 0.610369C96.7103 0.572343 98.2872 0.656125 99.4009 0.639736C99.9511 0.63185 100.707 0.572605 101.249 0.567048C101.681 0.562458 102.702 0.604818 102.894 0.580211C103.011 0.565417 103.065 0.512853 103.204 0.509145ZM88.6353 1.51617C88.7123 1.38542 87.9026 1.50098 88.2064 1.56867C88.2748 1.58373 88.6153 1.55003 88.6353 1.51617ZM50.7212 1.38603C50.7286 1.43537 50.7361 1.4847 50.7435 1.53404C50.8498 1.5136 50.9561 1.49315 51.0624 1.47269C51.0026 1.44298 50.9429 1.41327 50.8831 1.38358C50.8292 1.3844 50.7752 1.38522 50.7212 1.38603Z" fill="#191919"></path></svg>