<svg width="192" height="108" viewBox="0 0 192 108" fill="none" xmlns="http://www.w3.org/2000/svg">
<g clip-path="url(#clip0_20827_81873)">
<path d="M160.805 70.8336C160.925 70.8236 161.035 70.7936 161.155 70.7936C164.384 70.7936 167.614 70.7936 170.844 70.7936C170.944 70.7936 171.054 70.8236 171.154 70.8436C167.704 70.8436 164.254 70.8436 160.805 70.8436V70.8336Z" fill="#545454"/>
<path d="M78.4624 50.7259C78.4624 50.8958 78.4424 50.9758 78.4424 51.0658C78.4424 54.7555 78.4424 58.4351 78.4524 62.1248C78.4524 62.2647 78.4524 62.3647 78.2624 62.3647C77.1425 62.3647 76.0326 62.3647 74.9127 62.3647C74.8827 62.3647 74.8527 62.3547 74.8027 62.3447V45.5264C74.8827 45.5264 74.9727 45.5264 75.0627 45.5264C76.2726 45.5264 77.4725 45.5264 78.6824 45.5264C78.8723 45.5264 78.9923 45.5864 79.1123 45.7463C81.3621 48.916 83.6219 52.0757 85.8717 55.2354C86.2616 55.7754 86.6616 56.3153 87.1015 56.8453V45.5564H90.7312V62.3647C90.6412 62.3647 90.5612 62.3647 90.4812 62.3647C89.3013 62.3647 88.1214 62.3647 86.9316 62.3747C86.6916 62.3747 86.5616 62.3047 86.4316 62.1048C85.1917 60.2949 83.9418 58.4951 82.682 56.7053C81.3421 54.7855 79.9922 52.8757 78.6524 50.9658C78.6124 50.9058 78.5524 50.8558 78.4524 50.7359L78.4624 50.7259Z" fill="#545454"/>
<path d="M26.3052 45.5464C28.335 51.1258 30.3648 56.7153 32.4146 62.3447C32.2647 62.3447 32.1647 62.3647 32.0647 62.3647C30.8648 62.3647 29.6649 62.3647 28.465 62.3647C28.285 62.3647 28.215 62.3047 28.1651 62.1348C27.7151 60.7849 27.2451 59.435 26.7852 58.0851C26.7352 57.9552 26.6652 57.8952 26.5152 57.8952C24.6054 57.8952 22.6856 57.8952 20.7758 57.8952C20.6158 57.8952 20.5458 57.9552 20.4958 58.0951C20.0558 59.425 19.6159 60.7549 19.1859 62.0948C19.1159 62.3047 19.0159 62.3747 18.806 62.3647C17.6461 62.3547 16.4962 62.3647 15.3363 62.3647C15.2363 62.3647 15.1463 62.3647 14.9863 62.3647C15.0763 62.1947 15.1463 62.0648 15.1963 61.9348C15.4563 61.2448 15.7063 60.5549 15.9562 59.865C17.0661 56.8853 18.176 53.9056 19.2859 50.9158C19.9258 49.186 20.5758 47.4662 21.2257 45.7363C21.2757 45.6164 21.3057 45.5264 21.4757 45.5264C23.0555 45.5264 24.6254 45.5264 26.2052 45.5264C26.2252 45.5264 26.2552 45.5264 26.2952 45.5464H26.3052ZM23.7155 48.916C23.7155 48.916 23.6555 48.916 23.6255 48.916C22.9256 50.9858 22.2256 53.0556 21.5157 55.1354H25.8153C25.1053 53.0456 24.4154 50.9858 23.7155 48.916Z" fill="#545454"/>
<path d="M50.6955 45.5264H50.9755C55.1651 45.5264 59.3447 45.5264 63.5343 45.5264C63.8543 45.5264 63.8443 45.5264 63.8443 45.8463C63.8443 46.6063 63.8443 47.3662 63.8543 48.1261C63.8543 48.3061 63.8143 48.3861 63.6143 48.3861C60.7746 48.3861 57.9348 48.3861 55.0951 48.3861C54.9951 48.3861 54.9051 48.3861 54.7751 48.4061C54.7751 48.7061 54.7751 48.996 54.7751 49.276C54.7751 50.2859 54.7751 51.2858 54.7552 52.2957C54.7552 52.5057 54.8651 52.4857 55.0051 52.4857C57.5849 52.4857 60.1646 52.4857 62.7344 52.4857C62.9644 52.4857 63.0144 52.5557 63.0144 52.7757C62.9944 53.5556 62.9944 54.3455 63.0144 55.1254C63.0144 55.3054 62.9644 55.3554 62.7844 55.3554C60.2046 55.3554 57.6249 55.3654 55.0551 55.3754C54.8551 55.3754 54.7951 55.4254 54.7951 55.6354C54.7951 57.7752 54.7952 59.915 54.8051 62.0548C54.8051 62.2647 54.7652 62.3547 54.5252 62.3547C53.3253 62.3447 52.1254 62.3547 50.9255 62.3547C50.7455 62.3547 50.6855 62.3047 50.6855 62.1248C50.6955 56.8253 50.7055 51.5158 50.7055 46.2163C50.7055 45.9963 50.7055 45.7763 50.7055 45.5264H50.6955Z" fill="#545454"/>
<path d="M34.5159 45.5264C34.6358 45.5264 34.7258 45.5264 34.8158 45.5264C39.0054 45.5264 43.185 45.5264 47.3746 45.5264C47.6146 45.5264 47.7046 45.5664 47.6946 45.8363C47.6746 46.6063 47.6946 47.3762 47.6946 48.1361C47.6946 48.3261 47.6546 48.3961 47.4546 48.3961C44.6149 48.3961 41.7752 48.3961 38.9354 48.3961C38.5855 48.3961 38.5855 48.3961 38.5855 48.7361C38.5855 49.9159 38.5855 51.0858 38.5755 52.2657C38.5755 52.4857 38.6755 52.4957 38.8454 52.4957C41.4252 52.4957 44.0049 52.4957 46.5747 52.4957C46.8047 52.4957 46.8647 52.5557 46.8547 52.7857C46.8347 53.5656 46.8447 54.3355 46.8547 55.1154C46.8547 55.3154 46.8147 55.3754 46.5947 55.3754C43.9949 55.3754 41.3952 55.3754 38.7854 55.3754C38.5755 55.3754 38.5755 55.4754 38.5755 55.6354C38.5755 57.7652 38.5855 59.905 38.5855 62.0348C38.5855 62.3847 38.5855 62.3847 38.2355 62.3847C37.0756 62.3847 35.9157 62.3847 34.7658 62.3847C34.5559 62.3847 34.5059 62.3247 34.5059 62.1248C34.5059 57.1852 34.5059 52.2557 34.5059 47.3162C34.5059 46.7362 34.5059 46.1563 34.5059 45.5464L34.5159 45.5264Z" fill="#545454"/>
<path d="M116.807 45.5264C117.737 45.5264 118.617 45.5264 119.487 45.5264C120.037 45.5264 120.587 45.5264 121.136 45.5264C121.336 45.5264 121.446 45.5864 121.546 45.7663C122.606 47.7162 123.676 49.666 124.736 51.6158C124.806 51.7458 124.886 51.8658 124.986 52.0257C125.106 51.7958 125.216 51.5958 125.316 51.3958C126.336 49.506 127.356 47.6162 128.386 45.7263C128.436 45.6364 128.566 45.5364 128.656 45.5364C130.106 45.5264 131.565 45.5364 133.015 45.5364C133.035 45.5364 133.045 45.5364 133.075 45.5564C133.045 45.6164 133.035 45.6764 132.995 45.7263C131.765 47.7462 130.536 49.756 129.296 51.7758C128.546 53.0056 127.786 54.2255 127.036 55.4554C126.976 55.5554 126.956 55.7054 126.956 55.8254C126.956 57.3052 126.976 58.7851 126.986 60.2649C126.986 60.9149 126.986 61.5548 126.986 62.2047C126.986 62.3647 126.896 62.3747 126.776 62.3747C126.416 62.3747 126.056 62.3747 125.696 62.3747C124.846 62.3747 123.986 62.3747 123.136 62.3747C122.956 62.3747 122.906 62.3247 122.906 62.1448C122.916 60.025 122.926 57.9152 122.926 55.7954C122.926 55.7054 122.906 55.6154 122.866 55.5454C122.206 54.4455 121.536 53.3456 120.866 52.2557C119.757 50.4459 118.647 48.6461 117.547 46.8462C117.297 46.4363 117.067 46.0163 116.797 45.5664L116.807 45.5264Z" fill="#545454"/>
<path d="M115.796 45.5452C115.796 46.4551 115.796 47.355 115.796 48.2549C115.796 48.3949 115.706 48.3949 115.596 48.3949C113.986 48.3949 112.376 48.3949 110.766 48.3949C110.736 48.3949 110.706 48.3949 110.646 48.3949C110.646 48.5049 110.646 48.6049 110.646 48.7048C110.646 53.1444 110.646 57.584 110.646 62.0136C110.646 62.3335 110.646 62.3435 110.336 62.3435C109.076 62.3435 107.806 62.3435 106.517 62.3435V48.3849C106.417 48.3849 106.347 48.3849 106.277 48.3849C104.697 48.3849 103.107 48.3849 101.527 48.3849C101.367 48.3849 101.287 48.3549 101.287 48.1749C101.297 47.335 101.297 46.4951 101.307 45.6451C101.307 45.6151 101.307 45.5852 101.317 45.5352H115.796V45.5452Z" fill="#545454"/>
<path d="M66.8623 45.5264C67.1922 45.5264 67.5222 45.5264 67.8522 45.5264C68.7921 45.5264 69.722 45.5264 70.6619 45.5264C70.8819 45.5264 70.9419 45.5864 70.9419 45.7963C70.9419 50.9058 70.9419 56.0154 70.9419 61.1149C70.9419 61.4448 70.9419 61.7648 70.9519 62.0948C70.9519 62.2747 70.9019 62.3547 70.7019 62.3547C69.502 62.3547 68.3021 62.3547 67.1022 62.3547C66.8823 62.3547 66.8223 62.2947 66.8223 62.0848C66.8223 59.195 66.8223 56.3153 66.8223 53.4256C66.8223 50.8159 66.8223 48.2161 66.8323 45.6064C66.8323 45.5864 66.8323 45.5764 66.8523 45.5264H66.8623Z" fill="#545454"/>
<path d="M94.6389 45.5452H98.7085C98.7085 45.6351 98.7185 45.7051 98.7185 45.7751C98.7185 50.8846 98.7185 55.9941 98.7185 61.0936C98.7185 61.4336 98.7185 61.7836 98.7285 62.1235C98.7285 62.2935 98.6785 62.3535 98.5085 62.3535C97.2786 62.3535 96.0488 62.3535 94.8189 62.3535C94.6289 62.3535 94.6289 62.2535 94.6289 62.1235C94.6289 61.2236 94.6289 60.3237 94.6289 59.4238C94.6289 55.3842 94.6289 51.3546 94.6289 47.315C94.6289 46.725 94.6289 46.1451 94.6289 45.5352L94.6389 45.5452Z" fill="#545454"/>
<path d="M155.337 45.5856C157.087 48.3154 158.817 51.0151 160.576 53.7548H149.857C149.897 53.6648 149.917 53.5748 149.967 53.4949C150.707 52.395 151.457 51.3051 152.197 50.2052C152.907 49.1453 153.627 48.0954 154.337 47.0355C154.657 46.5655 154.987 46.0956 155.337 45.5756V45.5856Z" fill="#545454"/>
<path d="M143.992 62.5038H154.761C152.901 65.2335 151.082 67.9233 149.222 70.663C147.472 67.9333 145.752 65.2435 143.992 62.5038Z" fill="#545454"/>
<path d="M155.024 62.1831C153.264 59.4434 151.555 56.7537 149.805 54.0339H160.544C158.704 56.7537 156.874 59.4534 155.024 62.1831Z" fill="#545454"/>
<path d="M161.363 36.996H172.112C170.262 39.7257 168.443 42.4254 166.593 45.1552C164.843 42.4154 163.113 39.7157 161.373 36.996H161.363Z" fill="#545454"/>
<path d="M138.877 36.996H149.636C147.796 39.7157 145.976 42.4054 144.116 45.1452C142.367 42.4254 140.637 39.7257 138.877 36.996Z" fill="#545454"/>
<path d="M166.024 62.5437C164.205 65.2334 162.375 67.9132 160.525 70.6329C158.755 67.8932 157.025 65.2134 155.275 62.4837H165.964C165.964 62.4837 166.004 62.5237 166.024 62.5437Z" fill="#545454"/>
<path d="M160.823 53.6844C159.063 50.9346 157.343 48.2549 155.613 45.5352H166.342C164.492 48.2649 162.673 50.9546 160.823 53.6844Z" fill="#545454"/>
<path d="M149.544 53.6744C147.784 50.9347 146.054 48.255 144.314 45.5452H155.043C153.214 48.255 151.394 50.9447 149.544 53.6744Z" fill="#545454"/>
<path d="M149.875 37.0854C151.625 39.8051 153.355 42.5049 155.105 45.2346H144.346C146.196 42.5049 148.025 39.8051 149.865 37.0854H149.875Z" fill="#545454"/>
<path d="M155.625 45.2246C157.465 42.4949 159.285 39.8151 161.124 37.0854C162.864 39.8051 164.594 42.4949 166.344 45.2246H155.625Z" fill="#545454"/>
<path d="M160.814 54.0543C162.564 56.794 164.274 59.4737 166.014 62.2035H155.305C157.145 59.4837 158.964 56.794 160.814 54.0543Z" fill="#545454"/>
<path d="M154.743 62.2035H144.014C145.853 59.4838 147.673 56.7941 149.523 54.0643C151.273 56.7941 152.993 59.4838 154.733 62.2035H154.743Z" fill="#545454"/>
<path d="M171.504 70.6929H160.885C160.935 70.593 160.965 70.513 161.015 70.443C162.015 68.9431 163.015 67.4433 164.024 65.9434C164.734 64.8935 165.444 63.8436 166.164 62.8037C166.334 62.5537 166.344 62.5637 166.504 62.8237C167.384 64.2136 168.274 65.5934 169.164 66.9733C169.924 68.1532 170.674 69.3431 171.434 70.533C171.454 70.573 171.474 70.613 171.514 70.7029L171.504 70.6929Z" fill="#545454"/>
<path d="M148.927 70.6651H138.268C140.097 67.9553 141.897 65.2756 143.727 62.5659C145.467 65.2756 147.177 67.9553 148.917 70.6651H148.927Z" fill="#545454"/>
<path d="M177.914 39.107C177.974 39.8772 177.754 40.5273 177.133 41.0174C176.343 41.6375 174.813 41.6275 174.073 40.9874C173.403 40.4073 173.153 39.3771 173.483 38.4469C173.773 37.6167 174.523 37.0466 175.443 37.0166C175.773 37.0066 176.123 37.0166 176.443 37.0866C177.203 37.2466 178.024 37.9468 177.924 39.107H177.914ZM175.703 37.4267C174.623 37.4267 173.863 38.1568 173.853 39.227C173.853 40.3273 174.523 41.0074 175.613 41.0174C176.763 41.0274 177.473 40.3573 177.483 39.217C177.503 38.1768 176.753 37.4267 175.693 37.4267H175.703Z" fill="#545454"/>
<path d="M176.754 40.3884C176.433 40.4785 176.263 40.3984 176.143 40.1682C176.043 39.9681 175.923 39.788 175.813 39.5978C175.733 39.4477 175.593 39.4077 175.463 39.4577C175.403 39.4877 175.383 39.6278 175.373 39.7179C175.363 39.818 175.373 39.9281 175.373 40.0381C175.373 40.4484 175.353 40.4685 174.922 40.4084C174.922 40.3384 174.902 40.2683 174.902 40.1983C174.902 39.5378 174.902 38.8773 174.902 38.2168C174.902 38.0467 174.962 37.9766 175.123 37.9867C175.403 37.9967 175.683 37.9867 175.963 38.0067C176.223 38.0267 176.443 38.1468 176.524 38.417C176.604 38.6972 176.604 38.9874 176.343 39.1775C176.153 39.3176 176.183 39.4277 176.293 39.5978C176.463 39.848 176.594 40.1082 176.764 40.3884H176.754ZM175.353 38.6872C175.433 38.8173 175.243 39.0975 175.583 39.0975C175.893 39.0975 176.083 38.9273 176.083 38.6772C176.083 38.447 175.873 38.3169 175.533 38.3269C175.273 38.3369 175.383 38.5471 175.353 38.6872Z" fill="#545454"/>
</g>
<defs>
<clipPath id="clip0_20827_81873">
<rect width="162.924" height="33.8367" fill="white" transform="translate(14.998 36.9959)"/>
</clipPath>
</defs>
</svg>
