<svg width="192" height="108" viewBox="0 0 192 108" fill="none" xmlns="http://www.w3.org/2000/svg">
<path d="M56.9015 69.5117C55.7262 70.2854 53.8587 70.6315 51.903 70.6315C45.6998 70.6315 42.1934 66.8965 42.1934 60.948C42.1934 55.2018 45.6998 51.1828 51.8475 51.1828C53.6856 51.1828 55.5237 51.5093 56.8754 52.4887V54.9994C55.5237 54.1408 54.0284 53.6935 51.8638 53.6935C47.4367 53.6935 44.7954 56.6318 44.7954 60.961C44.7954 65.2902 47.5249 68.1731 52.0075 68.1731C53.7085 68.1886 55.3882 67.7944 56.9048 67.0239L56.9015 69.5117Z" fill="#545454"/>
<path d="M58.7207 63.1322C58.7207 58.8226 61.2477 55.6917 65.5573 55.6917C69.8669 55.6917 72.3384 58.8226 72.3384 63.1322C72.3384 67.4418 69.8375 70.6414 65.5573 70.6414C61.2771 70.6414 58.7207 67.4418 58.7207 63.1322ZM61.1334 63.1322C61.1334 65.8617 62.4851 68.3331 65.5573 68.3331C68.6295 68.3331 69.9257 65.8617 69.9257 63.1322C69.9257 60.4028 68.6034 57.9901 65.5573 57.9901C62.5112 57.9901 61.1269 60.4028 61.1269 63.1322H61.1334Z" fill="#545454"/>
<path d="M87.4176 70.3442H84.9461V61.6663C84.9461 59.0805 83.9111 57.9313 81.5572 57.9313C79.2718 57.9313 77.6785 59.456 77.6785 62.3584V70.3442H75.207V55.9789H77.6785V58.3361C78.1177 57.5198 78.7739 56.8408 79.5748 56.3741C80.3757 55.9074 81.29 55.6712 82.2167 55.6916C85.5207 55.6916 87.4176 57.9607 87.4176 61.9274V70.3442Z" fill="#545454"/>
<path d="M94.2835 55.9789H97.9891V58.2643H94.2835V70.3443H91.8708V58.2643H89.543V55.9789H91.8708V54.3988C91.8708 51.7281 93.3661 49.9161 96.4416 49.9161C97.0059 49.9142 97.5676 49.9923 98.1099 50.1479V52.4333C97.5976 52.3368 97.0773 52.2887 96.5559 52.2897C95.0344 52.2897 94.2868 53.181 94.2868 54.4738L94.2835 55.9789Z" fill="#545454"/>
<path d="M104.511 70.4292C102.154 70.4292 100.662 69.3094 100.662 66.6681V49.9749H103.124V66.3808C103.124 67.6867 103.986 68.1307 105.05 68.1307C105.29 68.1346 105.53 68.1258 105.768 68.1046V70.3149C105.356 70.4037 104.933 70.442 104.511 70.4292Z" fill="#545454"/>
<path d="M107.867 55.9789H110.339V64.6569C110.339 67.2427 111.374 68.3919 113.728 68.3919C116.013 68.3919 117.606 66.8672 117.606 63.9648V55.9789H120.078V70.3443H117.606V67.9871C117.167 68.8033 116.511 69.4823 115.71 69.949C114.909 70.4157 113.995 70.6519 113.068 70.6316C109.764 70.6316 107.867 68.3625 107.867 64.3957V55.9789Z" fill="#545454"/>
<path d="M130.681 70.6316C125.31 70.6316 122.953 67.53 122.953 63.1225C122.953 58.7835 125.366 55.6819 129.734 55.6819C134.158 55.6819 135.937 58.7574 135.937 63.1225V64.2423H125.454C125.8 66.6844 127.38 68.2646 130.769 68.2646C132.258 68.2644 133.736 68.0025 135.134 67.4908V69.7762C133.959 70.4031 132.147 70.6316 130.681 70.6316ZM125.425 62.143H133.44C133.296 59.4724 132.091 57.9477 129.62 57.9477C127.005 57.9379 125.683 59.6291 125.425 62.1267V62.143Z" fill="#545454"/>
<path d="M151.08 70.3442H148.611V61.6662C148.611 59.0805 147.576 57.9313 145.219 57.9313C142.934 57.9313 141.341 59.4559 141.341 62.3584V70.3442H138.869V55.9789H141.341V58.3361C141.781 57.5198 142.438 56.8409 143.239 56.3742C144.04 55.9076 144.955 55.6713 145.882 55.6916C149.186 55.6916 151.08 57.9606 151.08 61.9274V70.3442Z" fill="#545454"/>
<path d="M164.672 69.9721C163.81 70.4292 162.488 70.6251 161.165 70.6251C156.053 70.6251 153.656 67.5235 153.656 63.1159C153.656 58.7769 156.043 55.6753 161.165 55.6753C162.343 55.6372 163.513 55.873 164.584 56.3642V58.6496C163.57 58.1714 162.459 57.9355 161.338 57.9607C157.603 57.9607 156.082 60.3179 156.082 63.1028C156.082 65.8878 157.633 68.245 161.397 68.245C162.508 68.2744 163.615 68.0995 164.662 67.7291L164.672 69.9721Z" fill="#545454"/>
<path d="M174.355 70.6316C168.984 70.6316 166.627 67.53 166.627 63.1225C166.627 58.7835 169.04 55.6819 173.408 55.6819C177.832 55.6819 179.611 58.7574 179.611 63.1225V64.2423H169.128C169.454 66.6844 171.051 68.2646 174.443 68.2646C175.932 68.2644 177.41 68.0025 178.808 67.4908V69.7762C177.629 70.4031 175.821 70.6316 174.355 70.6316ZM169.098 62.143H177.114C176.97 59.4724 175.762 57.9477 173.294 57.9477C170.679 57.9379 169.356 59.6291 169.098 62.1267V62.143Z" fill="#545454"/>
<path d="M13.7277 66.4265C13.5155 66.7725 13.2771 67.1774 13.091 67.4941C13.0039 67.6412 12.978 67.8167 13.019 67.9828C13.0599 68.1488 13.1643 68.2922 13.3098 68.3821L17.5541 70.994C17.6278 71.0395 17.7099 71.0699 17.7955 71.0834C17.8812 71.0969 17.9686 71.0932 18.0528 71.0725C18.137 71.0519 18.2162 71.0146 18.2858 70.963C18.3555 70.9114 18.4142 70.8465 18.4584 70.772C18.6249 70.4879 18.8437 70.119 19.082 69.724C20.7634 66.9488 22.4579 67.2884 25.504 68.7445L29.7124 70.7459C29.7913 70.7834 29.8769 70.8047 29.9642 70.8086C30.0515 70.8125 30.1386 70.7988 30.2205 70.7683C30.3024 70.7379 30.3774 70.6913 30.4409 70.6314C30.5045 70.5714 30.5554 70.4993 30.5906 70.4194L32.6116 65.8486C32.6802 65.6917 32.6844 65.5141 32.6234 65.3541C32.5623 65.1941 32.4408 65.0645 32.2851 64.9932C31.397 64.5753 29.6308 63.7428 28.0408 62.9755C22.3077 60.1873 17.4463 60.3702 13.7277 66.4265Z" fill="#545454"/>
<path d="M32.7596 55.7177C32.9718 55.3717 33.2101 54.9668 33.4125 54.6501C33.4993 54.5026 33.5247 54.3268 33.4832 54.1607C33.4417 53.9946 33.3366 53.8515 33.1905 53.7621L28.9462 51.1502C28.8726 51.1052 28.7908 51.0752 28.7055 51.062C28.6202 51.0488 28.5332 51.0526 28.4494 51.0733C28.3656 51.0939 28.2867 51.131 28.2173 51.1823C28.1479 51.2336 28.0894 51.2982 28.0451 51.3722C27.8754 51.6563 27.6566 52.0252 27.4183 52.4202C25.7369 55.1954 24.0457 54.8558 20.9963 53.3997L16.7749 51.4081C16.6961 51.3711 16.6108 51.3502 16.5239 51.3466C16.4369 51.343 16.3502 51.3568 16.2687 51.3872C16.1871 51.4177 16.1125 51.4641 16.0492 51.5237C15.9859 51.5834 15.9351 51.6551 15.8999 51.7346L13.8789 56.3054C13.8103 56.4623 13.8061 56.6399 13.8671 56.7999C13.9282 56.9599 14.0497 57.0895 14.2054 57.1608C15.0935 57.5787 16.863 58.4112 18.4497 59.1785C24.1795 61.9438 29.0409 61.761 32.7596 55.7177Z" fill="#545454"/>
<path d="M75.981 42.1816C75.981 40.8757 75.1485 40.3043 73.5716 39.8962C72.5921 39.6481 72.3538 39.4359 72.3538 39.1061C72.3538 38.7143 72.6998 38.5152 73.3496 38.5152C74.1467 38.5449 74.9272 38.7512 75.6349 39.1192V37.4868C74.9403 37.1616 74.1818 36.9954 73.4148 37.0003C71.6975 37.0003 70.7442 37.8263 70.7442 39.1551C70.7442 40.4284 71.5865 41.0781 73.0296 41.398C74.0254 41.6201 74.3355 41.7866 74.3355 42.2143C74.3355 42.5407 74.0972 42.8085 73.3561 42.8085C72.4288 42.7894 71.5223 42.5307 70.7246 42.0575V43.7814C71.5347 44.1883 72.43 44.3964 73.3365 44.3886C75.1224 44.3886 75.981 43.5104 75.981 42.1816Z" fill="#545454"/>
<path d="M95.7051 37.1048V44.2874H97.2461V38.8155L97.8991 40.2651L100.054 44.2842H101.974V37.1015H100.449V41.7376L99.858 40.399L98.1211 37.1048H95.7051Z" fill="#545454"/>
<path d="M86.0173 37.1048H84.3457V44.2875H86.0173V37.1048Z" fill="#545454"/>
<path d="M57.793 37.1048V44.2875H61.208L61.7467 42.7334H59.4613V37.1048H57.793Z" fill="#545454"/>
<path d="M51.0254 37.1048V38.6752H52.8766V44.2842H54.5449V38.6752H56.5299V37.1048H51.0254Z" fill="#545454"/>
<path d="M48.5998 37.1048H46.3993L43.8984 44.2875H45.8084L46.1642 43.0729C46.6 43.2019 47.0517 43.269 47.5061 43.2721C47.9608 43.2735 48.4132 43.2063 48.8479 43.0729L49.2038 44.2875H51.1138L48.5998 37.1048ZM47.493 41.7899C47.1817 41.787 46.8722 41.7431 46.5723 41.6593L47.493 38.5152L48.4137 41.6593C48.112 41.7446 47.8001 41.7885 47.4865 41.7899H47.493Z" fill="#545454"/>
<path d="M67.1226 37.1048H64.9221L62.418 44.2875H64.3279L64.6838 43.0729C65.1206 43.2021 65.5734 43.2692 66.0289 43.2721C66.4836 43.2735 66.936 43.2063 67.3707 43.0729L67.7266 44.2875H69.6366L67.1226 37.1048ZM66.0158 41.7899C65.7046 41.7864 65.3951 41.7425 65.0951 41.6593L66.0158 38.5152L66.9398 41.6593C66.6388 41.7428 66.3282 41.7867 66.0158 41.7899Z" fill="#545454"/>
<path d="M92.0217 37.1048H89.8212L87.3203 44.2875H89.2303L89.5829 43.0729C90.0198 43.2016 90.4725 43.2686 90.928 43.2721C91.3827 43.2735 91.8351 43.2063 92.2698 43.0729L92.6257 44.2875H94.5356L92.0217 37.1048ZM90.928 41.7899C90.6167 41.787 90.3071 41.7431 90.0073 41.6593L90.928 38.5152L91.8487 41.6593C91.5454 41.7428 91.2327 41.7867 90.9182 41.7899H90.928Z" fill="#545454"/>
<path d="M82.627 42.1817C82.627 40.8757 81.7944 40.3044 80.2175 39.8963C79.2381 39.6481 78.9997 39.4359 78.9997 39.1062C78.9997 38.7144 79.3458 38.5152 79.9792 38.5152C80.7763 38.545 81.5569 38.7513 82.2646 39.1192V37.4868C81.5619 37.1578 80.7942 36.9915 80.0184 37.0003C78.3011 37.0003 77.3477 37.8263 77.3477 39.1551C77.3477 40.4284 78.19 41.0781 79.6331 41.3981C80.6289 41.6201 80.939 41.7866 80.939 42.2143C80.939 42.5408 80.6974 42.8085 79.9596 42.8085C79.0323 42.7895 78.1258 42.5308 77.3281 42.0576V43.7814C78.1382 44.1883 79.0335 44.3965 79.94 44.3887C81.7683 44.3887 82.627 43.5104 82.627 42.1817Z" fill="#545454"/>
</svg>
