<svg width="192" height="108" viewBox="0 0 192 108" fill="none" xmlns="http://www.w3.org/2000/svg">
<g clip-path="url(#clip0_18717_50158)">
<path d="M40.0423 70.7745H39.9644C38.1468 70.6966 37.7053 69.1646 36.8225 66.1005C36.3031 64.3607 35.6799 61.9718 34.9269 58.9596C34.6153 57.6872 34.3037 56.4149 33.9921 55.1944C33.6805 56.8044 33.3689 58.3624 33.1611 59.6088C32.9534 60.6475 32.7716 61.6342 32.6158 62.4392C32.2004 64.5425 29.8633 64.7243 28.9805 64.8022C27.786 64.906 26.1241 64.8801 23.6053 64.8801C22.6446 64.8801 23.7092 64.8801 22.5147 64.8801L20.6191 60.7254C21.8396 60.7254 22.6705 60.6994 23.6313 60.6994C25.7086 60.6994 27.5783 60.7254 28.6169 60.6475C28.7208 60.1022 28.8247 59.427 28.9545 58.8298C29.4479 56.1552 30.097 52.8055 30.6423 50.2088C30.9539 48.7546 31.2136 47.664 31.4214 46.885C31.707 45.8204 32.2004 44.0546 34.018 44.0546C34.9528 44.0546 35.9136 44.6779 36.2512 46.0022C36.7705 47.8977 38.3545 55.1685 39.8346 60.7773C40.8214 56.6226 42.0418 51.4033 43.0026 47.3265C43.9893 43.1458 44.7683 39.848 45.028 38.7834C45.5733 36.5762 46.7678 36.1348 47.6766 36.1607C49.7539 36.2127 50.2992 38.4977 50.7926 40.5232C51.2081 42.2889 51.6755 44.7298 52.2468 47.5861C52.4285 48.5729 52.6363 49.6375 52.844 50.7281C53.4932 53.974 53.8048 56.0513 54.0125 57.4016C54.0385 57.5834 54.0644 57.7651 54.0904 57.9469H63.1269L61.8805 62.2314H52.844C50.3771 62.2314 50.0915 60.3878 49.728 58.0767C49.5202 56.7524 49.2086 54.727 48.5854 51.5591C48.3777 50.4685 48.17 49.4038 47.9622 48.4171C47.8324 47.7679 47.7026 47.0668 47.5727 46.4176C47.4169 47.0408 47.2611 47.69 47.1053 48.3651C44.5865 59.0895 42.4573 68.074 42.1457 69.2165C41.912 70.0994 41.0291 70.7745 40.0423 70.7745Z" fill="#F5F5F5"/>
<path d="M52.8422 62.1537C50.3753 62.1537 50.0897 60.31 49.7261 57.999C49.5184 56.6747 49.2068 54.6492 48.5836 51.4813C48.3759 50.3907 48.1681 49.326 47.9604 48.3393C47.8306 47.6901 47.7007 46.989 47.5709 46.3398C47.4151 46.963 47.2593 47.6122 47.1035 48.2874C44.5847 59.0117 42.4554 67.9962 42.1438 69.1387C41.8582 70.1255 41.0013 70.7747 40.0145 70.7747H39.9366C38.1189 70.6968 37.6775 69.1647 36.7946 66.1006C36.2753 64.3608 35.6521 61.9719 34.8991 58.9597C34.5875 57.6874 34.2759 56.415 33.9643 55.1945C33.6527 56.8045 33.3411 58.3625 33.1333 59.6089C32.9256 60.6476 32.7438 61.6343 32.588 62.4393C32.1725 64.5426 29.8355 64.7244 28.9527 64.8023C27.7582 64.9061 26.0963 64.8802 23.5775 64.8802C22.6167 64.8802 23.6814 64.8802 22.4869 64.8802L21.2145 62.0758C21.1626 62.1796 21.1886 62.3614 21.3184 62.647C21.8637 63.9454 22.5388 65.1918 23.3438 66.3603C24.1228 67.5288 25.0317 68.5934 26.0184 69.6061C27.0051 70.5929 28.0957 71.5017 29.2643 72.2807C30.4328 73.0597 31.6792 73.7349 32.9775 74.3061C34.2759 74.8514 35.6521 75.2929 37.0803 75.5785C38.5085 75.8642 39.9886 76.02 41.4946 76.02C43.0007 76.02 44.4808 75.8642 45.909 75.5785C47.3372 75.2929 48.7134 74.8514 50.0118 74.3061C51.3101 73.7608 52.5565 73.0857 53.725 72.2807C54.8935 71.5017 55.9582 70.5929 56.9709 69.6061C57.9576 68.6194 58.8665 67.5288 59.6455 66.3603C60.4245 65.1918 61.0996 63.9454 61.6709 62.647C61.7488 62.4912 61.8007 62.3095 61.8786 62.1537H52.8422Z" fill="#545454"/>
<path d="M23.6034 60.6994C25.6808 60.6994 27.5504 60.7254 28.5891 60.6475C28.6929 60.1022 28.7968 59.427 28.9266 58.8298C29.42 56.1552 30.0692 52.8055 30.6145 50.2088C30.9261 48.7547 31.1858 47.6641 31.3935 46.885C31.6791 45.8204 32.1725 44.0547 33.9902 44.0547C34.925 44.0547 35.8598 44.6779 36.2233 46.0022C36.7427 47.8978 38.3266 55.1685 39.8068 60.7773C40.7935 56.6226 42.0139 51.4033 42.9747 47.3265C43.9614 43.1458 44.7405 39.848 45.0001 38.7834C45.5454 36.5762 46.7399 36.1348 47.6487 36.1607C49.7261 36.2127 50.2714 38.4978 50.7648 40.5232C51.1802 42.2889 51.6476 44.7298 52.2189 47.5862C52.4007 48.5729 52.6084 49.6375 52.8161 50.7281C53.4653 53.974 53.7769 56.0513 53.9847 57.4016C54.0106 57.5834 54.0366 57.7652 54.0626 57.921H63.125C63.3327 56.6746 63.4626 55.4022 63.4626 54.1038C63.4626 42.0292 53.673 32.2397 41.5985 32.2397C29.5239 32.2397 19.7344 42.0292 19.7344 54.1038C19.7344 56.4408 20.0979 58.674 20.773 60.7773C21.8896 60.7254 22.6946 60.6994 23.6034 60.6994Z" fill="#545454"/>
<path d="M76.1356 39.5625L80.7317 53.4807L85.3279 39.5625H90.8848V57.6873H87.1715L87.4831 43.5614L82.8351 57.6873H78.8102L74.0323 43.4056L74.4218 57.6873H70.5527V39.5365H76.1356V39.5625ZM98.3892 54.8829C97.6362 54.5973 97.0909 54.1039 96.7533 53.4028C96.4157 52.7017 96.2339 51.9487 96.208 51.1696C96.182 50.858 96.208 50.5464 96.2339 50.2348C96.2859 49.9232 96.3378 49.6116 96.4157 49.326C96.6494 48.573 97.0909 47.9757 97.766 47.5603C98.4411 47.1448 99.1682 46.963 99.9212 47.0409C100.077 47.0669 100.233 47.0929 100.389 47.1188C100.544 47.1448 100.726 47.1967 100.856 47.2746C101.557 47.5862 102.076 48.0536 102.388 48.7288C102.7 49.4039 102.881 50.105 102.907 50.8321C102.907 51.1697 102.881 51.5072 102.855 51.8188C102.804 52.1564 102.752 52.442 102.674 52.7536C102.44 53.5586 101.973 54.1818 101.272 54.5973C100.57 55.0127 99.8174 55.1685 99.0124 55.0647C98.9085 55.0387 98.8047 55.0127 98.7008 54.9868C98.6229 54.9608 98.519 54.9089 98.3892 54.8829ZM104.647 56.1293C105.296 55.4801 105.79 54.7271 106.127 53.8183C106.465 52.9354 106.621 52.0006 106.621 51.0658C106.621 50.131 106.465 49.1962 106.127 48.3133C105.79 47.4304 105.322 46.6514 104.647 46.0022C103.998 45.379 103.245 44.9116 102.336 44.6C101.427 44.2884 100.518 44.1326 99.5837 44.1326C98.6489 44.1326 97.7141 44.2884 96.8052 44.6C95.8964 44.9116 95.1433 45.379 94.4942 46.0022C93.845 46.6514 93.3516 47.4045 93.0141 48.3133C92.6765 49.1962 92.5207 50.131 92.5207 51.0658C92.5207 52.0006 92.6765 52.9354 93.0141 53.8183C93.3516 54.7011 93.819 55.4801 94.4942 56.1293C95.1433 56.7525 95.8964 57.2199 96.7793 57.5315C97.6621 57.8431 98.5969 57.9989 99.5317 57.9989C100.467 57.9989 101.401 57.8431 102.31 57.5315C103.245 57.2199 104.024 56.7525 104.647 56.1293ZM117.76 54.8569H117.241C117.059 54.8569 116.904 54.8569 116.722 54.8829C115.372 54.9089 114.229 54.779 113.268 54.4934C112.307 54.2337 111.788 53.1951 111.736 51.4034V50.6503C111.762 50.1829 111.866 49.7155 111.996 49.2481C112.126 48.7807 112.385 48.3652 112.749 48.0277C112.957 47.8459 113.164 47.6901 113.424 47.5603C113.658 47.4304 113.917 47.3525 114.203 47.3266C114.515 47.3006 114.8 47.2746 115.086 47.2746H117.345C117.475 47.2746 117.605 47.2746 117.734 47.2487V54.8569H117.76ZM121.24 57.6873V39.5365H117.734V44.3663L114.748 44.3923C113.736 44.3923 112.775 44.5221 111.866 44.7818C110.957 45.0415 110.178 45.5868 109.503 46.4437C108.958 47.1448 108.568 47.9238 108.334 48.7807C108.127 49.6376 108.023 50.4945 108.049 51.4034C108.153 53.3509 108.75 54.8829 109.867 56.0255C110.983 57.142 112.515 57.7133 114.515 57.7133H121.24V57.6873ZM124.408 39.5625V57.6873H128.277L127.888 43.4056L132.665 57.6873H136.69L141.312 43.5614L141.027 57.6873H144.74V39.5365H139.209L134.613 53.4547L130.017 39.5365H124.408V39.5625ZM150.686 57.3498C151.569 57.5835 152.478 57.6873 153.413 57.6873H158.528V54.9089L153.88 54.9348C152.868 54.9348 152.063 54.805 151.517 54.5453C150.972 54.2857 150.66 53.5846 150.634 52.4161H158.528V49.6376L150.634 49.6636C150.66 48.547 150.972 47.8459 151.569 47.5862C152.167 47.3006 152.946 47.1708 153.906 47.1448H158.528V44.3663L153.413 44.3923C152.478 44.3923 151.569 44.4962 150.686 44.7299C149.804 44.9636 149.025 45.431 148.349 46.184C147.83 46.7553 147.441 47.4045 147.207 48.1315C146.973 48.8586 146.817 49.6116 146.765 50.3647C146.739 50.4945 146.739 50.5984 146.739 50.7022V51.5592C146.791 52.3382 146.947 53.1172 147.181 53.8962C147.415 54.6492 147.804 55.3243 148.349 55.9216C149.051 56.6487 149.804 57.142 150.686 57.3498ZM170.058 54.8569H169.538C169.357 54.8569 169.201 54.8569 169.019 54.8829C167.669 54.9089 166.526 54.779 165.565 54.4934C164.605 54.2337 164.085 53.1951 164.033 51.4034V50.6503C164.059 50.1829 164.163 49.7155 164.293 49.2481C164.423 48.7807 164.683 48.3652 165.046 48.0277C165.254 47.8459 165.462 47.6901 165.721 47.5603C165.955 47.4304 166.215 47.3525 166.5 47.3266C166.812 47.3006 167.097 47.2746 167.383 47.2746H169.642C169.772 47.2746 169.902 47.2746 170.032 47.2487V54.8569H170.058ZM173.563 57.6873V39.5365H170.058V44.3663L167.072 44.3923C166.059 44.3923 165.098 44.5221 164.189 44.7818C163.28 45.0415 162.501 45.5868 161.826 46.4437C161.281 47.1448 160.891 47.9238 160.658 48.7807C160.45 49.6376 160.346 50.4945 160.372 51.4034C160.476 53.3509 161.073 54.8829 162.19 56.0255C163.306 57.142 164.838 57.7133 166.838 57.7133H173.563V57.6873Z" fill="#545454"/>
<path d="M71.9806 62.1017L73.4607 66.5939L74.9408 62.1017H76.7325V67.9442H75.538L75.6419 63.4L74.1618 67.9442H72.8635L71.3314 63.3481L71.4613 67.9442H70.2148V62.1017H71.9806ZM78.9137 64.1531C78.9657 63.8934 79.0695 63.6856 79.2253 63.5039C79.3552 63.3221 79.5629 63.1923 79.7966 63.0884C79.9005 63.0624 79.9784 63.0365 80.0822 63.0105C80.1861 62.9845 80.29 62.9845 80.3938 62.9845C80.4977 62.9845 80.6016 62.9845 80.7054 63.0105C80.8093 63.0365 80.9132 63.0624 80.9911 63.0884C81.2508 63.1663 81.4325 63.2961 81.5624 63.5039C81.6922 63.6856 81.7961 63.9194 81.848 64.1531C81.874 64.2829 81.8999 64.4387 81.9259 64.5945C81.9519 64.7503 81.9519 64.8801 81.9519 65.0359C81.9519 65.1917 81.9519 65.3475 81.9259 65.4774C81.8999 65.6332 81.874 65.763 81.848 65.9188C81.7961 66.1785 81.6922 66.3862 81.5624 66.568C81.4325 66.7497 81.2248 66.8796 80.9911 66.9834C80.8872 67.0094 80.8093 67.0354 80.7054 67.0613C80.6016 67.0873 80.4977 67.0873 80.3938 67.0873C80.29 67.0873 80.1861 67.0873 80.0822 67.0613C79.9784 67.0354 79.8745 67.0094 79.7966 66.9834C79.5369 66.9055 79.3552 66.7497 79.2253 66.568C79.0955 66.3862 78.9916 66.1785 78.9397 65.9188C78.9137 65.789 78.8878 65.6332 78.8618 65.4774C78.8358 65.3216 78.8358 65.1658 78.8358 65.0359C78.8358 64.8801 78.8358 64.7503 78.8618 64.5945C78.8878 64.4387 78.8878 64.2829 78.9137 64.1531ZM77.6673 63.7376C77.6154 63.9193 77.5635 64.1271 77.5375 64.3608C77.5115 64.5945 77.4856 64.8022 77.4856 65.0359C77.4856 65.2696 77.5115 65.4774 77.5375 65.7111C77.5635 65.9448 77.6154 66.1525 77.6673 66.3343C77.7972 66.7757 78.0049 67.1392 78.2905 67.3989C78.5762 67.6586 78.9397 67.8663 79.3811 67.9702C79.5369 67.9961 79.7187 68.0481 79.8745 68.0481C80.0303 68.074 80.2121 68.074 80.3679 68.074C80.5496 68.074 80.7314 68.074 80.9392 68.0481C81.1209 68.0221 81.3027 67.9961 81.4845 67.9442C81.9259 67.8403 82.2894 67.6586 82.5751 67.3729C82.8607 67.1133 83.0684 66.7497 83.1983 66.3083C83.2502 66.1006 83.3021 65.8928 83.3281 65.6851C83.3541 65.4514 83.38 65.2437 83.38 65.01C83.38 64.8022 83.3541 64.5685 83.3281 64.3608C83.3021 64.153 83.2502 63.9453 83.1983 63.7376C83.0684 63.3221 82.8607 62.9586 82.601 62.6989C82.3154 62.4392 81.9778 62.2315 81.5364 62.1276C81.3546 62.0757 81.1729 62.0497 80.9911 62.0238C80.8093 61.9978 80.6276 61.9978 80.4198 61.9978C80.238 61.9978 80.0822 61.9978 79.9005 62.0238C79.7187 62.0497 79.5629 62.0757 79.4071 62.1017C78.9657 62.2055 78.6021 62.4133 78.3425 62.6729C78.0049 62.9586 77.7972 63.2961 77.6673 63.7376ZM86.7038 63.1403H86.7557C86.9375 63.1403 87.1193 63.1663 87.2751 63.1923C87.4568 63.2182 87.5867 63.3221 87.7165 63.4779C87.8463 63.6077 87.9242 63.7895 87.9762 63.9713C88.0281 64.153 88.0541 64.3348 88.08 64.5426C88.08 64.6205 88.106 64.7243 88.106 64.8022V65.5293C88.08 65.737 88.0541 65.9188 88.0021 66.1006C87.9502 66.2823 87.8723 66.4641 87.7425 66.6199C87.6126 66.7757 87.4568 66.8536 87.301 66.9055C87.1193 66.9315 86.9635 66.9575 86.7817 66.9575H85.3016V63.1403H86.7038ZM84.0552 62.1017V67.9442H86.7557C87.0933 67.9442 87.4049 67.9182 87.7165 67.8663C88.0281 67.8144 88.3137 67.6586 88.5734 67.4508C88.885 67.1912 89.1187 66.8536 89.2485 66.4901C89.3784 66.1006 89.4563 65.7111 89.4563 65.3216V64.8282C89.4043 63.8934 89.1447 63.2182 88.7032 62.8028C88.2618 62.3613 87.6126 62.1536 86.7298 62.1536H84.0552V62.1017ZM91.7933 63.4779C92.027 63.2442 92.3386 63.1144 92.806 63.1144H94.8055V62.1017H92.78C91.8972 62.1017 91.248 62.3094 90.8066 62.7508C90.3651 63.1923 90.1055 63.8674 90.0535 64.7763V65.2696C90.0535 65.6851 90.1314 66.0746 90.2613 66.4381C90.3911 66.8276 90.6248 67.1392 90.9364 67.3989C91.1961 67.6066 91.5077 67.7624 91.7933 67.8144C92.1049 67.8663 92.4165 67.8923 92.7541 67.8923H94.8314V66.8796H92.7281C92.5463 66.8796 92.3646 66.8536 92.2088 66.8276C92.027 66.8017 91.8972 66.6978 91.7673 66.568C91.6375 66.4122 91.5336 66.2304 91.4817 66.0486C91.4298 65.8669 91.4038 65.6591 91.4038 65.4514H94.8055V64.4387H91.4298C91.4557 64.0492 91.5856 63.7116 91.7933 63.4779ZM98.5187 63.1663C98.8043 63.1663 99.038 63.1923 99.2718 63.2702C99.5055 63.3481 99.6093 63.5558 99.6093 63.8934C99.6093 64.231 99.5054 64.4387 99.2977 64.5166C99.09 64.5945 98.8563 64.6464 98.5966 64.6464H97.0386V63.1403L98.5187 63.1663ZM95.8182 62.1017V67.9442H97.0386V65.6591H98.4927L99.7651 67.9442H101.141L99.6872 65.5033C100.103 65.3995 100.388 65.2177 100.57 64.9061C100.752 64.6205 100.856 64.2569 100.856 63.8414V63.6337C100.83 63.426 100.804 63.2442 100.726 63.0365C100.648 62.8547 100.544 62.6729 100.388 62.5431C100.233 62.3873 100.051 62.2575 99.817 62.2055C99.6093 62.1536 99.3756 62.1017 99.1679 62.1017H95.8182ZM101.816 62.1017V67.9442H103.063L103.011 63.5298L105.504 67.9442H106.932V62.1017H105.686L105.737 66.3083L103.349 62.1017H101.816ZM108.049 67.9442H109.321V62.1017H108.049V67.9442ZM115.241 63.1403V62.1017H110.334V63.1403H113.657L110.334 66.9055V67.9442H115.241V66.9055H111.97L115.241 63.1403ZM116.332 67.9442H117.604V62.1017H116.332V67.9442ZM118.747 62.1017V67.9442H119.993L119.941 63.5298L122.434 67.9442H123.862V62.1017H122.616L122.668 66.3083L120.279 62.1017H118.747ZM127.108 65.5033H128.744V66.8796H127.368C126.797 66.8796 126.407 66.6978 126.251 66.3343C126.07 65.9707 125.992 65.5553 125.992 65.0619C125.992 64.5685 126.07 64.1271 126.251 63.7376C126.433 63.3221 126.797 63.1403 127.368 63.1144H129.991V62.1017H127.368C126.485 62.1017 125.836 62.3094 125.394 62.7508C124.953 63.1923 124.693 63.8674 124.641 64.7763V65.2696C124.641 65.6591 124.719 66.0746 124.849 66.4381C124.979 66.8276 125.213 67.1392 125.524 67.3989C125.784 67.6326 126.096 67.7624 126.407 67.8144C126.719 67.8663 127.056 67.8923 127.368 67.8923H129.991V64.4127H127.108V65.5033ZM133.989 62.1017V67.9442H135.236L135.106 63.3481L136.638 67.9442H137.936L139.416 63.4L139.313 67.9442H140.507V62.1017H138.715L137.235 66.5939L135.755 62.1017H133.989ZM143.052 63.4779C143.26 63.2442 143.597 63.1144 144.065 63.1144H146.064V62.1017H144.039C143.156 62.1017 142.507 62.3094 142.065 62.7508C141.624 63.1923 141.364 63.8674 141.312 64.7763V65.2696C141.312 65.6851 141.39 66.0746 141.52 66.4381C141.65 66.8276 141.883 67.1392 142.195 67.3989C142.455 67.6066 142.766 67.7624 143.052 67.8144C143.363 67.8663 143.675 67.8923 144.013 67.8923H146.09V66.8796H144.039C143.857 66.8796 143.675 66.8536 143.519 66.8276C143.337 66.8017 143.208 66.6978 143.078 66.568C142.948 66.4122 142.844 66.2304 142.792 66.0486C142.74 65.8669 142.714 65.6591 142.714 65.4514H146.116V64.4387H142.74C142.714 64.0492 142.844 63.7116 143.052 63.4779ZM149.725 63.1403H149.777C149.959 63.1403 150.141 63.1663 150.297 63.1923C150.478 63.2182 150.608 63.3221 150.738 63.4779C150.868 63.6077 150.946 63.7895 150.998 63.9713C151.05 64.153 151.076 64.3348 151.102 64.5426C151.102 64.6205 151.128 64.7243 151.128 64.8022V65.5293C151.102 65.737 151.076 65.9188 151.024 66.1006C150.972 66.2823 150.894 66.4641 150.764 66.6199C150.634 66.7757 150.478 66.8536 150.323 66.9055C150.141 66.9315 149.985 66.9575 149.803 66.9575H148.297V63.1403H149.725ZM147.077 62.1017V67.9442H149.777C150.115 67.9442 150.426 67.9182 150.738 67.8663C151.05 67.8144 151.335 67.6586 151.595 67.4508C151.907 67.1912 152.14 66.8536 152.27 66.4901C152.4 66.1006 152.478 65.7111 152.478 65.3216V64.8282C152.426 63.8934 152.166 63.2182 151.725 62.8028C151.283 62.3613 150.634 62.1536 149.751 62.1536H147.077V62.1017ZM153.257 67.9442H154.529V62.1017H153.257V67.9442ZM156.918 63.6856C157.1 63.2961 157.463 63.1144 158.061 63.0884H160.06V62.1017H158.035C157.152 62.1017 156.503 62.3094 156.061 62.7508C155.62 63.1923 155.36 63.8674 155.308 64.7763V65.2696C155.308 65.6851 155.386 66.0746 155.516 66.4381C155.646 66.8276 155.879 67.1392 156.191 67.3989C156.451 67.6066 156.736 67.7624 157.048 67.8144C157.36 67.8663 157.671 67.8923 158.009 67.8923H160.086V66.8796H158.035C157.853 66.8796 157.671 66.8536 157.515 66.8276C157.334 66.8017 157.204 66.6978 157.074 66.568C156.944 66.4381 156.866 66.2564 156.814 66.0746C156.762 65.8928 156.736 65.7111 156.71 65.5293V65.01C156.658 64.5166 156.762 64.0752 156.918 63.6856ZM160.917 67.9442H162.189V62.1017H160.917V67.9442ZM163.228 62.1017V67.9442H164.475L164.423 63.5298L166.915 67.9442H168.344V62.1017H167.097L167.149 66.3083L164.76 62.1017H163.228ZM170.862 63.4779C171.096 63.2442 171.408 63.1144 171.875 63.1144H173.875V62.1017H171.849C170.966 62.1017 170.317 62.3094 169.876 62.7508C169.434 63.1923 169.175 63.8674 169.123 64.7763V65.2696C169.123 65.6851 169.2 66.0746 169.33 66.4381C169.46 66.8276 169.694 67.1392 170.005 67.3989C170.265 67.6066 170.577 67.7624 170.862 67.8144C171.174 67.8663 171.486 67.8923 171.823 67.8923H173.9V66.8796H171.849C171.667 66.8796 171.486 66.8536 171.33 66.8276C171.148 66.8017 171.018 66.6978 170.888 66.568C170.758 66.4122 170.655 66.2304 170.603 66.0486C170.551 65.8669 170.525 65.6591 170.525 65.4514H173.926V64.4387H170.551C170.525 64.0492 170.629 63.7116 170.862 63.4779Z" fill="#545454"/>
</g>
<defs>
<clipPath id="clip0_18717_50158">
<rect width="155.853" height="47" fill="white" transform="translate(18.0742 30.5)"/>
</clipPath>
</defs>
</svg>
