<svg width="192" height="108" viewBox="0 0 192 108" fill="none" xmlns="http://www.w3.org/2000/svg">
<mask id="mask0_20827_81876" style="mask-type:luminance" maskUnits="userSpaceOnUse" x="57" y="45" width="116" height="20">
<path d="M172.069 45.3523H57.5391V64.0902H172.069V45.3523Z" fill="white"/>
</mask>
<g mask="url(#mask0_20827_81876)">
<path d="M124.632 60.0895C124.244 60.5998 123.754 61.0081 123.162 61.2938C122.488 61.5796 121.774 61.7225 121.039 61.7021C120.406 61.7225 119.774 61.5796 119.182 61.3142C119.1 61.253 118.998 61.1714 118.937 61.0693C118.876 60.9877 118.814 60.8856 118.753 60.7835C118.712 60.6815 118.671 60.5794 118.651 60.457C118.631 60.3345 118.631 60.2324 118.631 60.11C118.631 58.5178 120.223 57.7218 123.285 57.7218H124.611L124.632 60.0895ZM125.693 51.5983C124.632 50.9451 123.693 50.5369 121.978 50.5369C119.182 50.5369 117.467 51.2105 116.528 52.6597L119.059 53.864C119.447 53.0679 120.386 52.8026 121.856 52.8026L123.856 53.0679C124.183 53.272 124.428 53.619 124.53 54.0069V55.599H123.876C118.427 55.599 115.63 57.0686 115.63 60.11C115.63 60.3753 115.671 60.6611 115.732 60.9264C115.793 61.1918 115.895 61.4571 116.018 61.6817C116.14 61.9266 116.304 62.1511 116.467 62.3552C116.651 62.5594 116.855 62.7431 117.079 62.9064C117.875 63.7024 119.08 63.9678 120.406 63.9678C122.141 63.9678 123.468 63.5595 124.652 62.7635V63.9678H127.163V55.4561C127.163 53.5986 126.632 52.2515 125.693 51.5983ZM140.451 45.3523H142.982V47.8833H140.451V45.3523ZM162.108 57.0482C162.108 55.8031 162.455 54.8233 163.169 54.1293C163.822 53.4353 164.741 53.0475 165.7 53.0679C166.108 53.0475 166.517 53.0883 166.904 53.1904C167.088 53.2516 167.292 53.3333 167.476 53.4149C167.66 53.4966 167.823 53.619 167.986 53.7211C168.313 53.966 168.598 54.2518 168.823 54.5988C168.925 54.7621 169.027 54.9458 169.109 55.1295C169.19 55.3132 169.252 55.5173 169.292 55.701L162.108 57.1707V57.0482ZM166.231 61.4367C165.394 61.4571 164.557 61.2122 163.843 60.7631C163.23 60.3549 162.761 59.7425 162.516 59.0281L172.089 57.1707C172.109 55.9256 171.844 54.7009 171.293 53.5782C170.762 52.6189 169.986 51.8432 169.027 51.3125C168.517 51.0267 167.986 50.8226 167.415 50.6797C167.129 50.5981 166.843 50.5573 166.557 50.5165C165.986 50.4348 165.394 50.4348 164.822 50.5165C164.537 50.5573 164.251 50.5981 163.965 50.6797C163.414 50.8226 162.863 51.0267 162.353 51.3125C161.373 51.9249 160.597 52.8026 160.087 53.8436C159.556 54.7621 159.025 55.9664 159.025 57.2931C159.025 58.6199 159.556 59.6813 160.087 60.7427C160.638 61.7429 161.475 62.5798 162.475 63.1309C163.638 63.682 164.904 63.9474 166.19 63.9269C167.19 63.9474 168.19 63.7636 169.109 63.3962C169.946 63.0696 170.68 62.5185 171.232 61.8041L169.639 59.9467C168.782 60.9468 167.639 61.4367 166.231 61.4367ZM152.004 60.6407L148.146 50.5369H145.227L150.412 63.9474H153.473L158.923 50.5369H155.984L152.004 60.6407ZM140.451 50.5369H142.982V63.9474H140.451V50.5369ZM135.266 61.4367C134.654 61.4367 134.205 61.2938 133.939 61.0285C133.756 60.8244 133.592 60.5998 133.49 60.3549C133.388 60.11 133.307 59.8446 133.286 59.5588V53.1904H136.613V50.5369H133.409V48.0058H130.755V50.5369H128.755V53.1904H130.755V59.5588C130.755 61.0693 131.102 62.1715 131.817 62.8859C132.613 63.682 133.552 63.9474 134.878 63.9474C135.409 63.9882 135.96 63.9474 136.47 63.8249C136.92 63.682 137.307 63.4575 137.675 63.1717L136.879 60.906C136.409 61.2326 135.858 61.4367 135.266 61.4367ZM108.568 53.0679C109.221 53.0679 109.874 53.2516 110.425 53.5986C110.976 53.9048 111.446 54.3743 111.752 54.9254L113.875 53.5986C113.466 52.6597 112.752 51.8636 111.874 51.3329C110.895 50.8022 109.792 50.5165 108.69 50.5369C107.486 50.496 106.302 50.7614 105.241 51.3329C104.24 51.884 103.404 52.7209 102.852 53.7211C102.546 54.2518 102.322 54.8029 102.158 55.3949C101.669 57.2115 101.913 59.1302 102.852 60.7631C103.404 61.7633 104.24 62.6002 105.241 63.1513C105.771 63.4371 106.322 63.6412 106.914 63.7841C107.506 63.9269 108.098 63.9678 108.69 63.9474C109.221 63.9474 109.752 63.8861 110.262 63.7432C110.772 63.6004 111.282 63.4167 111.731 63.1513C112.65 62.641 113.385 61.8449 113.854 60.8856L111.731 59.5588C111.425 60.11 110.956 60.5794 110.405 60.8856C109.833 61.1918 109.2 61.3347 108.547 61.2938C107.547 61.3142 106.588 60.9264 105.894 60.2324C105.179 59.518 104.832 58.4974 104.832 57.1707C104.832 55.9256 105.179 54.9458 105.894 54.2518C106.404 53.6803 107.078 53.2924 107.812 53.1292C108.057 53.0883 108.323 53.0475 108.568 53.0679ZM96.8718 57.3136C96.8718 59.0485 96.3411 59.5792 95.8104 60.2324C95.2797 60.8856 94.3407 61.2938 93.2793 61.2938C92.2996 61.2938 91.5443 60.9877 91.0136 60.3549C90.4829 59.8242 90.3605 58.8853 90.3605 57.8238V50.5165H87.8294V58.2321C87.8294 60.0895 88.3193 61.5184 89.299 62.4777C90.238 63.5391 91.034 63.9474 92.7486 63.9474C93.5243 63.9882 94.2999 63.8453 95.0143 63.5391C95.7287 63.2534 96.3615 62.8043 96.8718 62.2124V63.9474H99.5253V50.5369H96.8718V57.3136ZM81.9917 59.4364C81.7059 60.0487 81.2364 60.5386 80.6649 60.906C79.481 61.6 78.0114 61.6 76.8071 60.906C76.2355 60.559 75.7661 60.0487 75.4803 59.4364C74.7659 58.0688 74.7659 56.4358 75.4803 55.0479C75.7661 54.4355 76.2355 53.9456 76.8071 53.5986C77.991 52.9046 79.4606 52.9046 80.6649 53.5986C81.2364 53.9456 81.7059 54.4559 81.9917 55.0479C82.7061 56.4358 82.7061 58.0688 81.9917 59.4364ZM82.5224 52.2719C82.0325 51.6799 81.3793 51.2309 80.6649 50.9451C79.9505 50.6593 79.1748 50.5165 78.3992 50.5369C77.2357 50.496 76.0927 50.7818 75.0721 51.3329C74.6026 51.6187 74.1536 51.9657 73.7657 52.3739C73.3779 52.7822 73.0513 53.2312 72.8064 53.7211C72.2553 54.8437 71.9899 56.0684 72.0103 57.3136C71.9899 58.5178 72.2553 59.7017 72.8064 60.7631C73.3167 61.7633 74.0923 62.5798 75.0721 63.1513C76.0927 63.7024 77.2357 63.9882 78.3992 63.9474C79.2157 63.9882 80.0321 63.8453 80.7874 63.5391C81.4609 63.2738 82.1141 62.7431 82.3795 62.0695V63.9269H85.033V45.7401H82.5019L82.5224 52.2719ZM60.3348 57.1707V57.0482C60.3348 55.8031 60.6818 54.8233 61.3962 54.1293C62.0902 53.4149 63.0496 53.0475 64.0498 53.0679C64.2539 53.0679 64.4376 53.0679 64.6417 53.1087C64.8458 53.1292 65.0295 53.1904 65.2132 53.2312C65.3969 53.2924 65.5806 53.3741 65.7643 53.4557C65.9276 53.5374 66.1113 53.6599 66.2542 53.7619C66.4175 53.8844 66.5604 54.0069 66.6829 54.1702C66.8258 54.313 66.9278 54.4763 67.0503 54.6396C67.1523 54.8029 67.2544 54.9866 67.336 55.1499C67.4177 55.3336 67.4789 55.5173 67.5198 55.701L60.3348 57.1707ZM69.4997 53.5986C68.969 52.6393 68.1933 51.8636 67.234 51.3329C65.1928 50.2307 62.723 50.2715 60.7227 51.4554C59.7225 52.0065 58.8856 52.8434 58.3345 53.8436C57.2323 56.0072 57.2323 58.5791 58.3345 60.7427C58.9264 61.7633 59.8041 62.6002 60.8655 63.1309C61.9882 63.682 63.2129 63.9474 64.458 63.9269C65.4582 63.9474 66.4583 63.7636 67.3769 63.3962C68.2138 63.0696 68.9486 62.5185 69.4997 61.8041L67.9076 59.9467C67.0707 60.906 65.846 61.4367 64.5805 61.4163C63.6007 61.4163 62.8047 61.1918 62.1923 60.7427C61.5187 60.3549 61.0084 59.7425 60.7227 59.0077L70.4182 57.1503C70.459 55.9256 70.1325 54.6804 69.4997 53.5986Z" fill="#545454"/>
</g>
<path d="M46.723 48.5111H21.9024V44.7554C21.9024 44.6533 21.9024 44.5717 21.9228 44.4696C21.9228 44.3675 21.9432 44.2859 21.9636 44.1838C21.984 44.1022 22.0044 44.0001 22.0248 43.9185C22.0453 43.8368 22.0861 43.7348 22.1269 43.6531C22.1677 43.5715 22.2085 43.4898 22.2494 43.4082C22.2902 43.3265 22.331 43.2449 22.3922 43.1633C22.4331 43.0816 22.4943 43.0204 22.5555 42.9387C22.6168 42.8571 22.678 42.7958 22.7392 42.7346C22.8005 42.6734 22.8821 42.6121 22.9434 42.5509C23.0046 42.4897 23.0862 42.4284 23.1679 42.3876C23.2495 42.3468 23.3312 42.2855 23.4128 42.2447C23.4945 42.2039 23.5761 42.1631 23.6578 42.1223C23.7394 42.0814 23.8211 42.061 23.9231 42.0202C24.0048 41.9998 24.1068 41.959 24.1885 41.959C24.2701 41.9386 24.3722 41.9386 24.4538 41.9181C24.5355 41.8977 24.6375 41.8977 24.7396 41.8977H43.8858C43.9674 41.8977 44.0695 41.8977 44.1715 41.9181C44.2736 41.9386 44.3552 41.9386 44.4369 41.959C44.6206 41.9998 44.8043 42.061 44.9676 42.1223C45.0492 42.1631 45.1309 42.2039 45.2125 42.2447C45.2942 42.2855 45.3758 42.3468 45.4575 42.3876C45.5391 42.4284 45.6004 42.4897 45.682 42.5509C45.7432 42.6121 45.8249 42.6734 45.8861 42.7346C45.9474 42.7958 46.0086 42.8775 46.0698 42.9387C46.1311 43 46.1923 43.0816 46.2331 43.1633C46.2739 43.2449 46.3352 43.3265 46.376 43.4082C46.4168 43.4898 46.4576 43.5715 46.4985 43.6531C46.5393 43.7348 46.5597 43.8368 46.6005 43.9185C46.6413 44.0001 46.6413 44.1022 46.6618 44.1838C46.6822 44.2655 46.6822 44.3675 46.7026 44.4696C46.723 44.5717 46.723 44.6533 46.723 44.7554V48.5111ZM46.723 63.9015C46.723 64.0036 46.723 64.0852 46.7026 64.1873C46.6822 64.2894 46.6822 64.371 46.6618 64.4731C46.6413 64.5751 46.6209 64.6568 46.6005 64.7384C46.5801 64.8201 46.5393 64.9221 46.4985 65.0038C46.4576 65.0854 46.4168 65.1671 46.376 65.2487C46.3352 65.3304 46.2943 65.412 46.2331 65.4937C46.1923 65.5753 46.1311 65.6365 46.0698 65.7182C46.0086 65.7794 45.9474 65.8611 45.8861 65.9223C45.8249 65.9835 45.7432 66.0448 45.682 66.106C45.6208 66.1672 45.5391 66.2285 45.4575 66.2693C45.3758 66.3101 45.2942 66.3714 45.2125 66.4122C45.1309 66.453 45.0492 66.4938 44.9676 66.5346C44.8043 66.5959 44.6206 66.6571 44.4369 66.6979C44.3348 66.7184 44.2532 66.7184 44.1511 66.7388C44.0491 66.7592 43.9674 66.7592 43.8654 66.7592H24.6988C24.5967 66.7592 24.5151 66.7592 24.413 66.7388C24.3109 66.7184 24.2293 66.7184 24.1272 66.6979C24.0456 66.6775 23.9435 66.6571 23.8619 66.6367C23.7802 66.6163 23.6782 66.5755 23.5965 66.5346C23.5149 66.4938 23.4332 66.453 23.3516 66.4122C23.27 66.3714 23.1883 66.3101 23.1067 66.2693C23.025 66.2285 22.9638 66.1672 22.8821 66.106C22.8005 66.0448 22.7392 65.9835 22.678 65.9223C22.6168 65.8611 22.5555 65.7794 22.4943 65.7182C22.4331 65.6569 22.3718 65.5753 22.331 65.4937C22.2902 65.412 22.229 65.3304 22.1881 65.2487C22.1473 65.1671 22.1065 65.0854 22.0657 65.0038C22.0248 64.9221 22.0044 64.8201 21.9636 64.7384C21.9432 64.6568 21.9228 64.5547 21.9024 64.4731C21.882 64.3914 21.8615 64.2894 21.8615 64.1873C21.8615 64.0852 21.8411 64.0036 21.8411 63.9015V51.4096H46.6618V63.9015H46.723ZM44.4981 38.9993H24.1272C23.9639 38.9993 23.7802 38.9993 23.617 39.0197C23.4537 39.0401 23.2904 39.0605 23.1271 39.1013C22.9638 39.1421 22.8005 39.183 22.6372 39.2238C22.4739 39.2646 22.3106 39.3259 22.1677 39.3871C22.0044 39.4483 21.8615 39.53 21.7187 39.6116C21.5758 39.6933 21.4329 39.7749 21.29 39.877C21.1471 39.979 21.0247 40.0811 20.8818 40.1831C20.7593 40.2852 20.6164 40.4077 20.5144 40.5301C20.2694 40.7751 20.0653 41.02 19.8816 41.3058C19.7796 41.4487 19.6979 41.5916 19.6163 41.7344C19.5346 41.8773 19.4734 42.0406 19.3917 42.1835C19.3305 42.3468 19.2693 42.4897 19.2284 42.653C19.1876 42.8163 19.1468 42.9795 19.106 43.1428C19.0651 43.3061 19.0447 43.4694 19.0243 43.6327C19.0039 43.796 19.0039 43.9593 19.0039 44.143V64.5343C19.0039 64.6976 19.0039 64.8609 19.0243 65.0446C19.0447 65.2079 19.0651 65.3712 19.106 65.5345C19.1468 65.6978 19.1876 65.8611 19.2284 66.0244C19.2693 66.1877 19.3305 66.3509 19.3917 66.4938C19.453 66.6571 19.5346 66.8 19.6163 66.9429C19.6979 67.0858 19.7796 67.2286 19.8816 67.3715C20.0653 67.6573 20.2898 67.9022 20.5144 68.1472C20.6368 68.2696 20.7593 68.3717 20.8818 68.4942C21.0247 68.5962 21.1471 68.6983 21.29 68.8003C21.4329 68.9024 21.5758 68.9841 21.7187 69.0657C21.8615 69.1473 22.0248 69.2086 22.1677 69.2902C22.331 69.3515 22.4739 69.4127 22.6372 69.4535C22.8005 69.4943 22.9638 69.5352 23.1271 69.576C23.2904 69.6168 23.4537 69.6372 23.617 69.6576C23.7802 69.678 23.9435 69.678 24.1272 69.678H44.4981C44.6614 69.678 44.8247 69.678 45.0084 69.6576C45.1921 69.6372 45.335 69.6168 45.4983 69.576C45.6616 69.5352 45.8249 69.4943 45.9882 69.4535C46.1515 69.4127 46.3148 69.3515 46.4576 69.2902C46.6005 69.229 46.7638 69.1473 46.9067 69.0657C47.0496 68.9841 47.1925 68.9024 47.3353 68.8003C47.4782 68.6983 47.6211 68.6166 47.7436 68.4942C48.0089 68.2901 48.2335 68.0451 48.458 67.7798C48.56 67.6573 48.6621 67.5144 48.7642 67.3715C48.8662 67.2286 48.9479 67.0858 49.0295 66.9429C49.1112 66.8 49.1724 66.6367 49.254 66.4938C49.3357 66.3509 49.3765 66.1877 49.4173 66.0244C49.4582 65.8611 49.499 65.6978 49.5398 65.5345C49.5806 65.3712 49.601 65.2079 49.6215 65.0446C49.6419 64.8813 49.6419 64.718 49.6419 64.5343V44.143C49.6419 43.9797 49.6419 43.8164 49.6215 43.6327C49.601 43.449 49.5806 43.3061 49.5398 43.1428C49.499 42.9795 49.4582 42.8163 49.4173 42.653C49.3765 42.4897 49.3153 42.3264 49.254 42.1835C49.1928 42.0406 49.1112 41.8773 49.0295 41.7344C48.9479 41.5916 48.8662 41.4487 48.7642 41.3058C48.6621 41.1629 48.5805 41.02 48.458 40.8976C48.2539 40.6322 48.0089 40.4077 47.7436 40.1831C47.6211 40.0811 47.4782 39.979 47.3353 39.877C47.1925 39.7749 47.0496 39.6933 46.9067 39.6116C46.7638 39.53 46.6005 39.4687 46.4576 39.3871C46.3148 39.3054 46.1515 39.2646 45.9882 39.2238C45.8249 39.183 45.6616 39.1421 45.4983 39.1013C45.335 39.0605 45.1717 39.0401 45.0084 39.0197C44.8451 38.9993 44.6818 38.9993 44.4981 38.9993Z" fill="#545454"/>
<path d="M24.3702 43.837H26.9227C26.9431 43.837 26.9636 43.837 26.984 43.8575C27.0044 43.8575 27.0248 43.8779 27.0452 43.8983C27.0657 43.9187 27.0657 43.9391 27.0861 43.9596C27.0861 43.98 27.1065 44.0004 27.1065 44.0412V46.5937C27.1065 46.6142 27.1065 46.6346 27.0861 46.6754C27.0861 46.6958 27.0657 46.7163 27.0452 46.7367C27.0248 46.7571 27.0044 46.7571 26.984 46.7775C26.9636 46.7775 26.9431 46.7979 26.9227 46.7979H24.3702C24.3498 46.7979 24.3294 46.7979 24.2885 46.7775C24.2681 46.7775 24.2477 46.7571 24.2273 46.7367C24.2069 46.7163 24.1864 46.6958 24.1864 46.6754C24.1864 46.655 24.166 46.6346 24.166 46.5937V44.0412C24.166 44.0208 24.166 44.0004 24.1864 43.9596C24.1864 43.9391 24.2069 43.9187 24.2273 43.8983C24.2477 43.8779 24.2681 43.8575 24.2885 43.8575C24.3294 43.837 24.3498 43.837 24.3702 43.837Z" fill="#545454"/>
<path d="M28.8214 43.837H31.3739C31.3943 43.837 31.4147 43.837 31.4352 43.8575C31.4556 43.8779 31.476 43.8779 31.4964 43.8983C31.5168 43.9187 31.5168 43.9391 31.5373 43.9596C31.5373 43.98 31.5577 44.0004 31.5577 44.0412V46.5937C31.5577 46.6142 31.5577 46.6346 31.5373 46.6754C31.5373 46.6958 31.5168 46.7163 31.4964 46.7367C31.476 46.7571 31.4556 46.7571 31.4352 46.7775C31.4147 46.7775 31.3943 46.7979 31.3739 46.7979H28.8214C28.801 46.7979 28.7805 46.7979 28.7397 46.7775C28.7193 46.7775 28.6989 46.7571 28.6784 46.7367C28.658 46.7163 28.6376 46.6958 28.6376 46.6754C28.6376 46.655 28.6172 46.6346 28.6172 46.5937V44.0412C28.6172 44.0208 28.6172 44.0004 28.6376 43.9596C28.6376 43.9391 28.658 43.9187 28.6784 43.8983C28.6989 43.8779 28.7193 43.8575 28.7397 43.8575C28.7805 43.837 28.801 43.837 28.8214 43.837Z" fill="#545454"/>
<path d="M33.2717 43.837H35.8242C35.8446 43.837 35.865 43.837 35.8854 43.8575C35.9059 43.8779 35.9263 43.8779 35.9467 43.8983C35.9671 43.9187 35.9671 43.9391 35.9875 43.9596C35.9875 43.98 36.008 44.0004 36.008 44.0412V46.5937C36.008 46.6142 36.008 46.6346 35.9875 46.6754C35.9875 46.6958 35.9671 46.7163 35.9467 46.7367C35.9263 46.7571 35.9059 46.7571 35.8854 46.7775C35.865 46.7775 35.8446 46.7979 35.8242 46.7979H33.2717C33.2512 46.7979 33.2308 46.7979 33.2104 46.7775C33.19 46.7775 33.1696 46.7571 33.1491 46.7367C33.1287 46.7163 33.1083 46.6958 33.1083 46.6754C33.1083 46.655 33.0879 46.6346 33.0879 46.5937V44.0412C33.0879 44.0208 33.0879 44.0004 33.1083 43.9596C33.1083 43.9391 33.1287 43.9187 33.1491 43.8983C33.1696 43.8779 33.19 43.8575 33.2104 43.8575C33.2308 43.837 33.2512 43.837 33.2717 43.837Z" fill="#545454"/>
<path d="M34.5583 61.6155H42.8038C42.8446 61.6155 42.865 61.6155 42.9059 61.6359C42.9467 61.6563 42.9671 61.6767 42.9875 61.6971C43.0079 61.7175 43.0283 61.7583 43.0487 61.7788C43.0691 61.7992 43.0691 61.84 43.0691 61.8808V64.2892C43.0691 64.33 43.0691 64.3504 43.0487 64.3912C43.0283 64.432 43.0079 64.4524 42.9875 64.4728C42.9671 64.4932 42.9263 64.5137 42.9059 64.5341C42.865 64.5545 42.8446 64.5545 42.8038 64.5545H34.5583C34.5175 64.5545 34.4971 64.5545 34.4562 64.5341C34.4154 64.5137 34.395 64.4932 34.3746 64.4728C34.3542 64.4524 34.3338 64.4116 34.3134 64.3912C34.293 64.3708 34.293 64.33 34.293 64.2892V61.8808C34.293 61.84 34.293 61.8196 34.3134 61.7788C34.3338 61.7583 34.3338 61.7175 34.3746 61.6971C34.395 61.6767 34.4358 61.6563 34.4562 61.6359C34.4971 61.6155 34.5379 61.6155 34.5583 61.6155Z" fill="#545454"/>
<path d="M27.3345 64.3707C27.3345 64.3911 27.3549 64.3911 27.3753 64.4115C27.3957 64.4319 27.3957 64.4319 27.4161 64.4523C27.4366 64.4523 27.457 64.4727 27.457 64.4727C27.4774 64.4727 27.4978 64.4727 27.5182 64.4727C27.5386 64.4727 27.559 64.4727 27.5794 64.4727C27.5998 64.4727 27.6203 64.4523 27.6407 64.4523C27.6611 64.4523 27.6815 64.4319 27.6815 64.4115C27.7019 64.3911 27.7019 64.3911 27.7223 64.3707L32.3966 59.1657C32.417 59.1453 32.4374 59.1249 32.4578 59.1045C32.4987 59.0636 32.4987 59.0024 32.4987 58.9412C32.4987 58.9207 32.4782 58.8799 32.4782 58.8595L27.9468 53.5729C27.9264 53.5525 27.906 53.5321 27.8856 53.5116C27.8652 53.4912 27.8448 53.4708 27.804 53.4708C27.7835 53.4708 27.7427 53.4708 27.7223 53.4708C27.7019 53.4708 27.6611 53.4912 27.6407 53.4912L26.1098 54.7976C26.0894 54.7976 26.069 54.818 26.069 54.818C26.0486 54.8384 26.0486 54.8384 26.0281 54.8588C26.0077 54.8792 26.0077 54.8996 25.9873 54.8996C25.9873 54.9201 25.9669 54.9405 25.9669 54.9609C25.9669 54.9813 25.9669 55.0017 25.9669 55.0221C25.9669 55.0425 25.9669 55.0629 25.9669 55.0833C25.9669 55.1038 25.9873 55.1242 25.9873 55.1446C26.0077 55.165 26.0077 55.1854 26.0281 55.1854L29.0899 58.7779C29.1103 58.7983 29.1307 58.8187 29.1307 58.8595C29.1511 58.9207 29.1511 58.9616 29.1307 59.0228C29.1307 59.0432 29.1103 59.0636 29.0899 59.1045L25.8036 62.6969C25.7832 62.7173 25.7832 62.7581 25.7832 62.7786C25.7832 62.799 25.7832 62.8398 25.7832 62.8602C25.8036 62.9214 25.824 62.9623 25.8853 63.0031L27.3345 64.3707Z" fill="#545454"/>
</svg>
