<svg width="192" height="108" viewBox="0 0 192 108" fill="none" xmlns="http://www.w3.org/2000/svg">
<g clip-path="url(#clip0_20827_81878)">
<path d="M52.7717 38.8675C48.908 38.8675 45.0668 40.3711 42.4458 43.1091C39.6892 45.847 38.0398 49.5276 38.1754 53.3652C38.0398 57.2028 39.6892 60.8834 42.4458 63.6213C45.2024 66.3593 48.908 67.9976 52.7717 67.8629C56.6354 67.8629 60.341 66.3593 63.0976 63.6213C65.8542 60.8834 67.5036 57.2028 67.368 53.3652C67.368 49.5276 65.8542 45.7124 63.0976 43.1091C60.4766 40.3711 56.771 38.8675 52.7717 38.8675ZM62.126 62.791C59.6406 65.2596 56.3417 66.6286 52.7717 66.6286C49.2017 66.7632 45.8802 65.2596 43.4174 62.791C40.7964 60.3223 39.4181 57.0457 39.5536 53.4999C39.4181 49.954 40.9319 46.655 43.4174 44.2088C45.9028 41.6055 49.2017 40.2365 52.7717 40.3711C56.3417 40.3711 59.6631 41.7401 62.126 44.2088C64.5888 46.6774 65.9897 49.954 65.9897 53.4999C66.1253 57.0457 64.747 60.3448 62.126 62.791ZM52.7717 41.8748C49.6084 41.8748 46.5807 43.1091 44.3664 45.286C42.1747 47.4629 40.9319 50.4702 40.9319 53.6345C40.9319 56.7764 42.1747 59.7837 44.3664 61.8259C46.5581 64.0028 49.5858 65.2372 52.7717 65.2372C55.935 65.2372 58.9627 64.0028 61.0188 61.8259C63.2106 59.649 64.4533 56.6418 64.4533 53.6345C64.4533 50.4926 63.2106 47.4853 61.0188 45.286C58.9627 43.1091 55.935 41.7401 52.7717 41.8748ZM63.0976 54.0385C63.0976 56.7764 61.8549 59.3797 59.7987 61.1527C57.7426 63.0603 55.1216 64.0253 52.365 63.756C46.7162 63.4867 42.3102 58.8411 42.604 53.0959V52.9612C42.7395 50.2233 43.9823 47.62 46.0384 45.847C48.0945 43.9394 50.7155 42.9744 53.4721 43.2437C56.2287 43.3784 58.6916 44.6127 60.4992 46.655C62.3068 48.6972 63.2331 51.323 63.0976 54.0385ZM69.0175 46.8121C68.0459 44.7698 66.8257 42.8398 65.3119 41.2015C63.6625 39.5632 61.8775 38.3289 59.6631 37.521C57.4714 36.5559 55.1216 36.152 52.7717 36.152C50.4218 36.152 48.0945 36.5559 45.8802 37.521C43.8241 38.3513 41.8809 39.5632 40.3671 41.2015C38.7176 42.8398 37.4749 44.6127 36.6615 46.8121C35.6899 48.989 35.2832 51.323 35.2832 53.657C35.2832 55.991 35.6899 58.3025 36.6615 60.5019C39.4181 66.9203 45.7447 71.1619 52.7717 71.1619C55.1216 71.1619 57.4488 70.758 59.6631 69.793C61.7193 68.9626 63.6625 67.6161 65.3119 66.1124C66.9613 64.4741 68.204 62.7012 69.0175 60.6365C69.989 58.4596 70.3957 56.2603 70.3957 53.7916C70.3957 51.1659 69.9664 48.8543 69.0175 46.8121ZM67.6392 59.7837C66.8032 61.6913 65.7186 63.3296 64.2047 64.8332C62.6909 66.3368 61.0414 67.4365 59.1209 68.2444C55.1216 69.8827 50.58 69.8827 46.6033 68.2444C44.6827 67.4141 42.8977 66.3368 41.3838 64.8332C39.87 63.3296 38.7628 61.6913 37.9494 59.7837C36.3 55.8114 36.3 51.3005 37.9494 47.3507C38.7854 45.4431 39.87 43.8048 41.3838 42.3012C42.8977 40.7975 44.5471 39.6979 46.4677 38.8899C48.3883 38.0596 50.6026 37.6556 52.6587 37.6556C54.8504 37.6556 56.9292 38.0596 58.8497 38.8899C60.7703 39.7203 62.5553 40.7975 64.0692 42.3012C65.583 43.8048 66.6902 45.4431 67.5036 47.3507C69.4242 51.323 69.4242 55.8339 67.6392 59.7837Z" fill="#545454"/>
<path d="M45.3393 57.4701C45.6104 57.874 45.8816 58.4351 46.1753 58.8391V48.179C44.9326 49.6826 44.2547 51.5902 44.2547 53.5202C44.2321 54.8668 44.6388 56.2358 45.3393 57.4701ZM48.0959 60.612C48.6381 61.016 49.3386 61.2853 50.0164 61.577V45.441C49.3386 45.7103 48.6381 45.9796 48.0959 46.406C48.0959 46.3836 48.0959 60.612 48.0959 60.612ZM51.937 45.0146V61.9585H53.8576V45.0146C53.8802 45.0146 51.937 45.0146 51.937 45.0146ZM55.8007 61.5546C56.4786 61.2853 57.0435 61.016 57.7213 60.5896V46.3612C57.179 45.9572 56.4786 45.6879 55.8007 45.3961C55.8007 45.441 55.8007 61.5546 55.8007 61.5546ZM59.5063 48.3136V58.9737L60.3423 57.7394C61.0202 56.5051 61.3139 55.1361 61.3139 53.7671C61.4495 51.5902 60.749 49.6602 59.5063 48.3136ZM48.9093 29.1704C48.0733 29.305 47.2599 29.4397 46.4238 29.709L47.8021 34.7585L49.8583 34.3545C49.8809 34.3545 48.9093 29.1704 48.9093 29.1704ZM36.5273 42.9724L32.1212 40.0998C31.579 40.773 31.1497 41.6034 30.743 42.2767L35.4201 44.6107C35.8494 44.072 36.1205 43.511 36.5273 42.9724ZM43.961 30.5393C43.125 30.8087 42.4471 31.2126 41.6111 31.639L43.961 36.2846C44.6388 35.8806 45.2037 35.746 45.8816 35.4542L43.961 30.5393ZM42.176 37.2271L39.4194 32.8509C38.5834 33.3895 37.9055 33.8159 37.2277 34.3545L40.5266 38.4615L42.176 37.2271ZM39.0127 39.8305L35.3071 36.1499C34.7649 36.6885 34.2 37.3842 33.6577 38.0575L37.7926 41.3341C38.1767 40.7955 38.5834 40.2344 39.0127 39.8305ZM65.0195 38.4615L68.3183 34.4892L66.2622 32.8509L63.3701 37.2271C64.0479 37.6311 64.6128 38.0575 65.0195 38.4615ZM64.0479 31.6166C63.2119 31.2126 62.534 30.9433 61.698 30.5169L59.7775 35.4318C60.4553 35.7011 61.1557 35.9704 61.698 36.2621C61.7206 36.2621 64.0479 31.6166 64.0479 31.6166ZM68.0472 41.3341L72.0465 38.0575C71.5042 37.3842 70.9394 36.8232 70.2615 36.1499L66.5559 39.8305L68.0472 41.3341ZM70.1033 44.7453L74.7805 42.4113C74.3738 41.581 73.9445 40.9077 73.4022 40.2344L68.9962 43.107C69.4255 43.511 69.6966 44.072 70.1033 44.7453ZM71.4816 48.4483L76.5655 47.0793L75.7295 44.6107L70.7812 46.5182C71.0749 47.214 71.3461 47.8872 71.4816 48.4483ZM59.2352 29.709C58.3992 29.4397 57.5857 29.305 56.7497 29.1704L55.9137 34.3545L57.9699 34.7585C57.9925 34.7585 59.2352 29.709 59.2352 29.709ZM54.1513 28.9011H51.5303L51.8014 34.2423H53.8576C53.8802 34.2199 54.1513 28.9011 54.1513 28.9011ZM34.0418 58.5473L28.9579 59.9163L29.794 62.3849L34.7423 60.4773C34.4711 59.7816 34.2 59.1084 34.0418 58.5473ZM72.0465 56.5051L77.2659 57.3354C77.4015 56.5051 77.5371 55.5625 77.5371 54.7321L72.1595 54.4628C72.1821 55.1361 72.1821 55.8318 72.0465 56.5051ZM70.9394 60.4773L75.8877 62.3849L76.7237 59.9163L71.6398 58.5473C71.4816 59.1084 71.2105 59.7816 70.9394 60.4773ZM77.2659 49.6602L72.0465 50.4905C72.1821 51.1638 72.1821 51.8595 72.3177 52.5328L77.5371 52.2635C77.4015 51.3209 77.4015 50.4905 77.2659 49.6602ZM69.1544 64.0232L73.5604 66.8958C74.1027 66.2226 74.532 65.3922 74.9387 64.7189L70.2615 62.3849C69.9678 62.9236 69.5611 63.4846 69.1544 64.0232ZM66.6689 67.1651L70.3745 70.8457C70.9168 70.3071 71.6172 69.6114 72.1595 68.9381L68.0246 65.6615C67.5049 66.2001 67.0756 66.7612 66.6689 67.1651ZM63.5056 69.7684L66.3978 74.1447C67.0756 73.7407 67.7761 73.1797 68.4539 72.6411L65.1551 68.5341L63.5056 69.7684ZM34.6067 46.5182L29.6584 44.6107L28.8224 47.0793L33.9062 48.4483C34.2 47.7526 34.4711 47.214 34.6067 46.5182ZM37.6344 65.6615L33.4995 68.9381C34.0418 69.6114 34.6067 70.3071 35.2845 70.8457L39.1483 67.1651L37.6344 65.6615ZM35.4201 62.2503L30.743 64.5843C31.1497 65.4146 31.579 66.0879 32.1212 66.7612L36.5273 63.8886C36.2561 63.4846 35.8494 62.9236 35.4201 62.2503ZM33.364 54.4628L28.1445 54.8668C28.1445 55.6971 28.2801 56.5051 28.4157 57.3354L33.6351 56.5051C33.4995 55.8318 33.364 55.1361 33.364 54.4628ZM40.5266 68.5341L37.2277 72.6411C37.9055 73.1797 38.606 73.7407 39.2838 74.1447L42.176 69.7684L40.5266 68.5341ZM33.6351 50.4905L28.4157 49.6602C28.2801 50.4905 28.1445 51.2985 28.1445 52.2635L33.364 52.5328C33.364 51.8595 33.4995 51.1638 33.6351 50.4905ZM59.8 71.5414L61.7206 76.4562C62.5566 76.1869 63.3701 75.783 64.0705 75.3566L61.7206 70.711C61.0202 71.0028 60.4779 71.2721 59.8 71.5414ZM41.6111 75.379C42.4471 75.783 43.125 76.0523 43.961 76.4787L45.8816 71.5638C45.2037 71.2945 44.6388 71.0252 44.0966 70.7335L41.6111 75.379ZM51.5303 78.0945H54.1513L53.8802 72.7533H51.8014L51.5303 78.0945ZM55.9363 72.6411L56.7723 77.8252C57.6083 77.6906 58.4218 77.5559 59.2578 77.2866L57.8795 72.2371C57.179 72.3718 56.6142 72.5064 55.9363 72.6411ZM46.4464 77.2866C47.2825 77.5559 48.0959 77.6906 48.9319 77.8252L49.7679 72.6411C49.09 72.5064 48.3896 72.3718 47.8473 72.2371C47.8247 72.2371 46.4464 77.2866 46.4464 77.2866Z" fill="#545454"/>
<path d="M87.4551 65.9313V41.6039H97.3743C101.78 41.7385 105.215 45.2844 105.215 49.6607C105.35 54.0369 101.916 57.5828 97.5098 57.7174H92.1322V65.9089H87.4551V65.9313ZM92.2678 53.6329H97.3517C99.1367 53.6329 100.379 52.1293 100.379 49.6607C100.379 47.192 98.73 45.6884 97.0805 45.6884H92.2678C92.2678 45.7108 92.2678 53.6329 92.2678 53.6329ZM118.839 51.7253C116.218 51.7253 113.891 53.0943 112.648 55.4059V66.066H107.971V47.8877H112.242V51.7253C113.62 49.2567 115.947 47.6184 117.89 47.6184H118.862C118.839 47.6184 118.839 51.7253 118.839 51.7253ZM120.082 57.0442C119.947 51.9947 123.946 47.7531 129.03 47.6184H129.708C135.628 47.6184 138.791 51.86 138.791 56.7749C138.791 57.3135 138.791 57.8745 138.655 58.4131H125.166C125.302 61.0164 127.358 62.924 129.979 62.924C131.899 62.924 133.684 61.8244 134.52 60.0514L138.384 61.5551C136.735 64.5623 133.436 66.4699 129.979 66.2006C123.517 66.3577 120.082 62.1161 120.082 57.0442ZM134.385 55.5405C134.249 53.0719 132.193 51.0296 129.708 51.0296C127.222 51.0296 125.166 52.9372 125.03 55.5405H134.385ZM158.471 43.1075C158.471 41.7385 159.578 40.5042 161.092 40.5042C162.47 40.5042 163.713 41.6039 163.713 43.1075C163.713 44.4765 162.606 45.7108 161.092 45.7108C159.578 45.7108 158.471 44.6111 158.471 43.1075ZM158.742 65.9313V47.8877H163.419V65.9313H158.742ZM139.333 65.9313L148.687 51.7029H140.282V47.8877H155.556L146.202 62.2508H155.692V65.9313H139.333Z" fill="#545454"/>
</g>
<defs>
<clipPath id="clip0_20827_81878">
<rect width="135.987" height="48.9952" fill="white" transform="translate(27.9961 29.1306)"/>
</clipPath>
</defs>
</svg>
