<svg width="192" height="108" viewBox="0 0 192 108" fill="none" xmlns="http://www.w3.org/2000/svg">
<path d="M50.827 52.3803C51.8236 51.2273 52.387 49.8785 52.387 48.4208C52.387 43.0037 48.3353 39.0007 39.6686 39.0007C34.707 39.0007 31.002 40.4583 31.002 40.4583L32.302 43.9392C32.302 43.9392 34.967 42.4816 39.6686 42.4816C44.3703 42.4816 48.9203 43.8304 48.9203 48.4208C48.9203 49.117 48.747 49.6827 48.422 50.1613C44.8903 47.4418 40.3403 45.8102 36.787 45.8102C34.772 45.8102 31.7386 46.8327 31.7386 49.7262C31.7386 54.3601 38.8236 55.6654 42.572 55.6654C44.6736 55.6654 46.5586 55.2085 48.1186 54.4471C49.5486 56.0135 50.5236 57.928 50.5236 60.1688C50.5236 63.6061 46.9053 64.3676 44.8903 64.3676C39.4086 64.3676 36.2236 60.6474 35.2053 58.4283L31.8903 59.2986V67.1305H35.357V64.237C35.357 64.237 38.8453 68.0007 44.8903 68.0007C50.6753 68.0007 54.142 64.5851 54.142 60.1688C54.1203 57.2318 52.8203 54.5776 50.827 52.3803ZM35.357 50.0307C35.357 48.5731 40.752 49.2911 45.107 52.0105C41.077 52.7719 35.357 51.3143 35.357 50.0307ZM56.7853 42.2423C56.7853 40.8064 57.8686 39.7187 59.2986 39.7187C60.7286 39.7187 61.812 40.8064 61.812 42.2423C61.812 43.6346 60.7286 44.7659 59.2986 44.7659C57.8686 44.7442 56.7853 43.6346 56.7853 42.2423ZM57.4786 67.1305V47.7899H61.0536V67.1305H57.4786ZM68.6803 64.0412H80.1203V67.1305H64.412V64.0412L75.202 50.9227H65.1486V47.7899H79.752V50.6181L68.6803 64.0412ZM86.5336 64.0412H97.9736V67.1305H82.2653V64.0412L93.0553 50.9227H83.002V47.7899H97.5836V50.6181L86.5336 64.0412ZM116.975 56.1223V67.1523H113.595V63.7367C112.209 66.2168 109.825 67.6527 106.705 67.6527C102.74 67.6527 100.075 65.3248 100.075 61.8875C100.075 58.015 103.455 55.6219 108.829 55.6219C110.367 55.6219 111.992 55.8177 113.4 56.2093V56.1223C113.4 52.8807 112.295 50.5094 108.894 50.5094C106.272 50.5094 104.625 51.9017 105.189 54.4471H101.462C100.422 50.2701 103.997 47.2896 108.937 47.2896C114.31 47.2896 116.975 50.8139 116.975 56.1223ZM113.509 59.168C112.209 58.7329 110.584 58.5154 109.089 58.5154C105.665 58.5154 103.78 59.8642 103.78 61.9092C103.78 63.6061 105.08 64.5851 107.247 64.5851C110.389 64.5851 112.967 62.4966 113.509 59.168ZM139.964 57.4711C139.964 63.5844 136.302 67.6309 131.21 67.6309C128.285 67.6309 126.01 66.3256 124.58 64.0412V67.1305H121.005V40.0668H124.58V50.901C126.01 48.6166 128.285 47.3113 131.21 47.3113C136.345 47.2896 139.964 51.4013 139.964 57.4711ZM136.194 57.4711C136.194 53.2506 133.832 50.5094 130.365 50.5094C126.812 50.5094 124.472 53.3376 124.472 57.4711C124.472 61.6046 126.834 64.4328 130.322 64.4328C133.875 64.4328 136.194 61.6046 136.194 57.4711ZM141.979 57.4711C141.979 51.4013 145.792 47.3113 151.49 47.3113C157.189 47.3113 161.002 51.4231 161.002 57.4711C161.002 63.5409 157.189 67.6309 151.49 67.6309C145.792 67.6309 141.979 63.5409 141.979 57.4711ZM157.232 57.4711C157.232 53.2941 154.957 50.5094 151.49 50.5094C148.067 50.5094 145.749 53.2941 145.749 57.4711C145.749 61.6046 148.067 64.4328 151.49 64.4328C154.957 64.4328 157.232 61.6046 157.232 57.4711Z" fill="#545454"/>
</svg>
