<svg width="192" height="108" viewBox="0 0 192 108" fill="none" xmlns="http://www.w3.org/2000/svg">
<path d="M115.834 43.0455C109.926 43.0739 105.114 47.9295 105.141 53.9753C105.168 60.0211 110.029 64.8311 115.936 64.804C121.844 64.7768 126.658 59.92 126.629 53.8766C126.601 47.8333 121.742 43.0196 115.831 43.048L115.834 43.0455ZM115.915 60.3701C114.24 60.38 112.631 59.7226 111.441 58.5448C110.251 57.367 109.591 55.7624 109.572 54.0875C109.554 52.4127 110.22 50.8032 111.398 49.613C112.575 48.4228 114.18 47.763 115.855 47.7445C117.53 47.726 119.139 48.392 120.329 49.5698C121.52 50.7477 122.179 52.3522 122.198 54.0271C122.215 57.3879 119.275 60.3529 115.915 60.3701ZM139.768 48.17C136.678 48.1848 134.272 50.7477 134.287 53.8372L134.336 64.1787L129.635 64.2009L129.54 43.6498L134.241 43.6276L134.257 46.8503C134.257 46.8503 136.255 43.619 140.286 43.6005L141.63 43.5931L141.652 48.1589L139.768 48.17ZM92.8692 43.825L96.4286 57.9121L100.124 43.7904L104.825 43.7695L99.0087 64.36L94.4429 64.3809L90.7503 50.0274L87.1909 64.4142L82.6239 64.4352L76.4844 43.9125L81.0502 43.8916L85.1448 57.9762L88.4378 43.857L92.8692 43.825ZM155.368 52.9344C158.581 51.04 160.851 47.5361 160.832 43.5068L156.131 43.529C156.148 47.0218 153.338 49.856 149.981 49.8683L149.309 49.8708L149.235 33.6191L144.534 33.6413L144.678 64.1293L149.377 64.1084L149.332 54.439L149.869 54.4366C150.407 54.4341 150.946 54.7005 151.083 55.1026L157.706 64.0689L163.212 64.0442L155.368 52.9344Z" fill="#545454"/>
<path d="M65.6021 43.2823C60.4998 43.307 56.6197 46.6826 55.1681 52.0612C52.7323 48.3118 50.8317 44.0235 49.7414 40.4025L44.3703 40.4271L44.4369 54.6635C44.4428 56.0171 43.911 57.3176 42.9584 58.2792C42.0058 59.2408 40.7103 59.7848 39.3568 59.7917C38.0032 59.7976 36.7027 59.2658 35.7411 58.3132C34.7795 57.3606 34.2354 56.0652 34.2286 54.7116L34.1607 40.4752L28.7871 40.4999L28.8537 54.7363C28.8821 60.6439 33.602 65.3257 39.379 65.2973C45.1559 65.2689 49.8352 60.5465 49.808 54.6376L49.7957 52.2203C50.8786 54.3626 52.2328 56.6393 53.7214 58.6484L50.437 74.3771L55.9426 74.3524L58.3106 62.9244C60.4653 64.2588 62.874 65.0519 65.7057 65.0383C71.6158 65.0099 76.4295 60.1543 76.3987 53.9753C76.3762 51.1284 75.2285 48.4061 73.2059 46.4025C71.1833 44.3989 68.4503 43.2767 65.6033 43.2811L65.6021 43.2823ZM65.6786 59.5339C63.5301 59.5438 61.3779 58.6139 59.6254 57.1437L60.152 54.994V54.8707C60.5467 52.5841 61.7331 48.6843 65.7637 48.667C67.1848 48.6647 68.5494 49.2237 69.5604 50.2225C70.5714 51.2212 71.147 52.5789 71.162 54C71.0411 57.0895 68.5017 59.5191 65.6798 59.5327L65.6786 59.5339Z" fill="#545454"/>
</svg>
