<svg width="192" height="108" viewBox="0 0 192 108" fill="none" xmlns="http://www.w3.org/2000/svg">
<g clip-path="url(#clip0_20827_81879)">
<path d="M100.749 43.7297V40.2167H94.8945V58.6023H100.749V52.8447C100.749 48.258 102.858 45.9627 107.079 45.9627H108.141L108.402 40.1C108.009 40.0027 107.569 39.9561 107.079 39.9561C104.371 39.9561 102.267 41.2165 100.749 43.7297Z" fill="#545454"/>
<path d="M61.9718 39.6633C59.2408 39.6633 56.9378 40.5814 55.051 42.4138C53.1719 44.2422 52.2344 46.5764 52.2344 49.4086C52.2344 52.2679 53.1719 54.5982 55.051 56.4189C56.9261 58.2434 59.2253 59.146 61.9368 59.146C64.0804 59.146 65.9477 58.6636 67.5155 57.6988C69.0911 56.734 70.266 55.3024 71.0518 53.3922L65.7221 52.5519C64.9285 53.8202 63.668 54.4543 61.9368 54.4543C60.9642 54.4543 60.1161 54.1392 59.4081 53.5089C58.704 52.8748 58.2216 52.0073 57.9804 50.9063H71.4564V49.4086C71.398 46.4753 70.4799 44.1294 68.667 42.3399C66.8658 40.5542 64.6328 39.6633 61.9718 39.6633ZM58.0971 47.3156C58.3655 46.413 58.8674 45.7089 59.5987 45.1915C60.3301 44.6818 61.1276 44.4212 61.9718 44.4212C62.8471 44.4212 63.6252 44.6702 64.2749 45.1564C64.9362 45.6466 65.4031 46.3624 65.6715 47.3156H58.0971Z" fill="#545454"/>
<path d="M74.4941 58.6032H80.528V49.8111H92.0239V44.5319H80.528V39.3695H93.4555V34.0631H74.4941V58.6032Z" fill="#545454"/>
<path d="M166.609 53.1801C165.75 53.6703 164.859 53.9115 163.941 53.9115C162.307 53.9115 161.486 53.0206 161.486 51.2388V44.8704H166.901V40.2176H161.486V34.0631L155.631 35.0007V40.2176H152.297V44.8704H155.631V51.8302C155.631 54.2227 156.273 56.0395 157.545 57.2883C158.825 58.5332 160.63 59.1556 162.949 59.1556C164.61 59.1556 166.279 58.7004 167.967 57.7979L166.609 53.1801Z" fill="#545454"/>
<path d="M126.515 42.4487C124.562 40.6436 122.185 39.7411 119.384 39.7411C116.525 39.7411 114.113 40.6436 112.148 42.4487C110.187 44.2538 109.203 46.5764 109.203 49.4085C109.203 52.2679 110.187 54.5982 112.148 56.4033C114.113 58.2084 116.525 59.1109 119.384 59.1109C122.185 59.1109 124.57 58.2084 126.515 56.4033C128.468 54.5982 129.444 52.2679 129.444 49.4085C129.444 46.5764 128.468 44.2538 126.515 42.4487ZM122.489 52.8281C121.613 53.7229 120.575 54.1702 119.384 54.1702C118.139 54.1702 117.069 53.7229 116.178 52.8281C115.284 51.9372 114.848 50.7896 114.848 49.4085C114.848 48.0158 115.303 46.8798 116.202 45.985C117.104 45.0942 118.166 44.6546 119.388 44.6546C120.559 44.6546 121.594 45.1019 122.481 45.985C123.372 46.8798 123.819 48.0236 123.819 49.4085C123.8 50.7896 123.364 51.9372 122.489 52.8281Z" fill="#545454"/>
<path d="M143.595 39.6633C141.3 39.6633 139.425 40.4297 137.962 41.9664V40.2041H132.104V58.5897H137.962V50.0621C137.962 48.3271 138.301 47.0432 138.97 46.1991C139.639 45.3587 140.577 44.9425 141.775 44.9425C142.705 44.9425 143.463 45.2809 144.043 45.9501C144.63 46.6192 144.914 47.4945 144.914 48.5682V58.6014H150.738V47.3156C150.738 45.0242 150.088 43.1724 148.781 41.768C147.47 40.3675 145.747 39.6633 143.595 39.6633Z" fill="#545454"/>
<path d="M23.3906 53.1047H47.6817V58.6017H23.3906V53.1047Z" fill="#545454"/>
<path d="M23.3906 45.1917H47.6817V50.677H23.3906V45.1917Z" fill="#545454"/>
<path d="M23.3906 38.0388V43.5202L47.6934 39.6727V34.1796L23.3906 38.0388Z" fill="#545454"/>
</g>
<path d="M24.7648 71.8977C24.2317 71.8977 23.8036 71.7615 23.4806 71.5046C23.1576 71.2439 22.998 70.8586 22.998 70.3605C22.998 70.057 23.0603 69.8002 23.1771 69.5667C23.2938 69.341 23.4611 69.1464 23.6752 68.9946C23.8892 68.839 24.1383 68.7222 24.434 68.6522C24.7298 68.5821 25.0411 68.5471 25.3913 68.5471H26.2903C26.2747 68.2513 26.1657 68.0568 25.9906 67.9556C25.8116 67.8583 25.5859 67.8155 25.3174 67.8155C24.9788 67.8155 24.6831 67.8583 24.434 67.9556C24.185 68.0568 23.9787 68.1969 23.8036 68.3759L23.1031 67.2512C23.3794 66.9477 23.7296 66.7142 24.1577 66.5547C24.5858 66.4029 25.0878 66.3212 25.6482 66.3212C26.0256 66.3212 26.3603 66.3562 26.695 66.4379C27.0141 66.5196 27.2943 66.6442 27.5355 66.8193C27.769 66.9983 27.9519 67.2396 28.0881 67.5353C28.2204 67.8311 28.2944 68.1969 28.2944 68.6366V71.7615H26.5782L26.4537 71.0571C26.2825 71.3256 26.0607 71.528 25.7844 71.6836C25.5042 71.8198 25.1695 71.8977 24.7648 71.8977ZM25.4341 70.6835C25.7026 70.6835 25.9089 70.6018 26.0684 70.4306C26.2202 70.271 26.3019 70.0298 26.3019 69.7184V69.5861H25.6404C25.0878 69.5861 24.8115 69.7807 24.8115 70.1737C24.8115 70.3333 24.8621 70.4578 24.971 70.5473C25.0683 70.6446 25.2279 70.6835 25.4341 70.6835Z" fill="#545454"/>
<path d="M32.9819 66.4654L33.1376 67.3682C33.3477 67.0257 33.6045 66.7611 33.9353 66.5821C34.2661 66.4031 34.6047 66.3097 34.9705 66.3097C35.6593 66.3097 36.1846 66.5471 36.5543 66.9985C36.9162 67.4577 37.0952 68.127 37.0952 69.0026C37.0952 69.4385 37.0524 69.8354 36.9512 70.1934C36.8539 70.5475 36.7022 70.8511 36.5076 71.1001C36.3091 71.3492 36.0601 71.5476 35.7565 71.6916C35.453 71.8356 35.1067 71.9057 34.6942 71.9057C34.1221 71.9057 33.6668 71.7383 33.3477 71.3881V73.7035H31.3008V66.4537H32.9819V66.4654ZM33.2932 69.1466C33.2932 69.5863 33.3827 69.9054 33.5501 70.1117C33.7213 70.3257 33.9431 70.423 34.2116 70.423C34.8381 70.423 35.1495 69.9949 35.1495 69.1271C35.1495 68.6524 35.0716 68.3138 34.9082 68.1076C34.7486 67.913 34.5152 67.804 34.2194 67.804C33.9548 67.804 33.7291 67.9013 33.5617 68.1076C33.3827 68.3294 33.2932 68.6718 33.2932 69.1466Z" fill="#545454"/>
<path d="M39.2726 71.8977C38.7395 71.8977 38.3114 71.7615 37.9884 71.5046C37.6693 71.2439 37.5059 70.8586 37.5059 70.3605C37.5059 70.057 37.5681 69.8002 37.6849 69.5667C37.8016 69.341 37.9689 69.1464 38.183 68.9946C38.397 68.839 38.6461 68.7222 38.9418 68.6522C39.2376 68.5821 39.5489 68.5471 39.8991 68.5471H40.7981C40.7825 68.2513 40.6774 68.0568 40.4984 67.9556C40.3194 67.8583 40.0937 67.8155 39.8252 67.8155C39.4866 67.8155 39.1948 67.8583 38.9418 67.9556C38.6928 68.0568 38.4904 68.1969 38.3114 68.3759L37.6109 67.2512C37.8872 66.9477 38.2375 66.7142 38.6655 66.5547C39.0936 66.4029 39.5956 66.3212 40.156 66.3212C40.5334 66.3212 40.872 66.3562 41.2028 66.4379C41.5219 66.5196 41.8021 66.6442 42.0433 66.8193C42.2768 66.9983 42.4597 67.2396 42.5959 67.5353C42.7282 67.8311 42.8022 68.1969 42.8022 68.6366V71.7615H41.086L40.9615 71.0571C40.7942 71.3256 40.5685 71.528 40.2922 71.6836C40.012 71.8198 39.6773 71.8977 39.2726 71.8977ZM39.9536 70.6835C40.2221 70.6835 40.4245 70.6018 40.584 70.4306C40.7358 70.271 40.8175 70.0298 40.8175 69.7184V69.5861H40.156C39.6034 69.5861 39.3271 69.7807 39.3271 70.1737C39.3271 70.3333 39.3816 70.4578 39.4866 70.5473C39.5839 70.6446 39.7396 70.6835 39.9536 70.6835Z" fill="#545454"/>
<path d="M43.6933 66.4664H45.3667L45.534 67.486C45.713 67.1085 45.9621 66.8205 46.2851 66.6065C46.5964 66.3925 46.9622 66.2952 47.363 66.2952L47.3825 68.2331C46.8104 68.1981 46.4018 68.3304 46.1294 68.6378C45.8726 68.9375 45.7325 69.35 45.7325 69.8598V71.7433H43.6855V66.4664H43.6933Z" fill="#545454"/>
<path d="M48.3936 66.4669V64.9921H50.3977V66.4669H51.752V67.9379H50.3977V69.763C50.3977 70.2339 50.6195 70.4674 51.0671 70.4674C51.3161 70.4674 51.5301 70.4246 51.7169 70.3273L51.9777 71.5414C51.7714 71.6582 51.5496 71.7555 51.2889 71.8216C51.0398 71.88 50.7635 71.9189 50.46 71.9189C50.1837 71.9189 49.9113 71.88 49.6545 71.8216C49.4054 71.7555 49.1836 71.6465 48.9968 71.5064C48.8061 71.3508 48.6543 71.1562 48.5454 70.9071C48.4403 70.6581 48.3897 70.3429 48.3897 69.9693V67.9496H47.6348V66.4747H48.3936V66.4669Z" fill="#545454"/>
<path d="M54.2559 69.1114C54.2559 68.6366 54.3181 68.2124 54.4504 67.8661C54.5866 67.5197 54.7734 67.224 55.0225 66.9983C55.2715 66.7765 55.579 66.5975 55.9253 66.4885C56.2833 66.3756 56.6842 66.3212 57.1317 66.3212C58.0968 66.3212 58.8206 66.5469 59.3031 66.9905C59.774 67.438 60.0153 68.1424 60.0153 69.1114C60.0153 70.0375 59.774 70.738 59.2837 71.2011C58.7933 71.6642 58.0812 71.9055 57.1317 71.9055C55.2209 71.9055 54.2559 70.9754 54.2559 69.1114ZM58.0968 69.1153C58.0968 68.6716 58.0228 68.3409 57.8711 68.1346C57.7193 67.9284 57.478 67.8194 57.1433 67.8194C56.7931 67.8194 56.5402 67.9284 56.3884 68.1346C56.2444 68.3409 56.1666 68.6716 56.1666 69.1153C56.1666 69.5861 56.2444 69.913 56.4001 70.1193C56.5518 70.3255 56.8009 70.4306 57.1317 70.4306C57.4702 70.4306 57.7115 70.3255 57.8672 70.1193C58.0228 69.913 58.0968 69.5861 58.0968 69.1153Z" fill="#545454"/>
<path d="M61.1083 66.4653V66.1773C61.1083 65.7998 61.1589 65.4729 61.2639 65.1927C61.3729 64.9164 61.5169 64.6946 61.7153 64.5156C61.9099 64.3366 62.1317 64.2043 62.4002 64.1226C62.6571 64.0409 62.9528 63.998 63.2642 63.998C63.3809 63.998 63.4977 64.0058 63.63 64.0136C63.7662 64.0331 63.9024 64.0525 64.023 64.072C64.1514 64.0953 64.2721 64.1342 64.3888 64.1771C64.5055 64.2199 64.6067 64.2743 64.6962 64.3366L64.3382 65.5858C64.2565 65.5352 64.1592 65.4885 64.058 65.4651C63.9607 65.4379 63.8557 65.4262 63.7584 65.4262C63.3186 65.4262 63.1046 65.6792 63.1046 66.1773V66.4536H64.416V67.9285H63.1046V71.7421H61.1083V67.9285H60.3027V66.4536H61.1083V66.4653Z" fill="#545454"/>
<path d="M67.25 64.3833H71.2154C71.589 64.3833 71.9198 64.4261 72.1961 64.5234C72.4763 64.6246 72.7059 64.7569 72.8849 64.9359C73.0639 65.1149 73.2001 65.3212 73.2857 65.5624C73.3791 65.7998 73.4219 66.0722 73.4219 66.368C73.4219 66.7026 73.3402 67.0101 73.169 67.2747C73.0094 67.5354 72.7759 67.7417 72.4841 67.8856C72.6786 67.9362 72.8499 68.0296 72.99 68.1425C73.1339 68.2592 73.239 68.3915 73.3324 68.5472C73.4219 68.699 73.4842 68.8663 73.5309 69.057C73.5737 69.2438 73.5931 69.4306 73.5931 69.6213C73.5931 71.0378 72.772 71.7421 71.1143 71.7421H67.2617V64.3833H67.25ZM69.3047 65.9282V67.3292H70.6706C70.9119 67.3292 71.0792 67.2708 71.196 67.1346C71.3127 66.9984 71.3672 66.8388 71.3672 66.6443C71.3672 66.4186 71.3049 66.2395 71.1804 66.1228C71.052 65.9983 70.8963 65.936 70.6862 65.936H69.3047V65.9282ZM69.3047 68.8157V70.2322H70.7601C71.017 70.2322 71.2076 70.1738 71.3322 70.0376C71.4567 69.9053 71.519 69.7341 71.519 69.5045C71.519 69.2944 71.4645 69.1348 71.3477 69.0025C71.231 68.878 71.0637 68.804 70.8224 68.804H69.3047V68.8157Z" fill="#545454"/>
<path d="M76.4376 71.7421H74.3906V64.3833H76.4376V71.7421Z" fill="#545454"/>
<path d="M78.8624 71.8977C78.3293 71.8977 77.9012 71.7615 77.5782 71.5046C77.2591 71.2439 77.0957 70.8586 77.0957 70.3605C77.0957 70.057 77.1619 69.8002 77.2747 69.5667C77.3915 69.341 77.5588 69.1464 77.7728 68.9946C77.9907 68.839 78.2398 68.7222 78.5317 68.6522C78.8274 68.5821 79.1426 68.5471 79.489 68.5471H80.3918C80.3723 68.2513 80.2673 68.0568 80.0883 67.9556C79.9093 67.8583 79.6835 67.8155 79.4189 67.8155C79.0765 67.8155 78.7846 67.8583 78.5317 67.9556C78.2826 68.0568 78.0803 68.1969 77.9012 68.3759L77.2008 67.2512C77.481 66.9477 77.8273 66.7142 78.2593 66.5547C78.6873 66.4029 79.1854 66.3212 79.7497 66.3212C80.1233 66.3212 80.4657 66.3562 80.7965 66.4379C81.1156 66.5196 81.3919 66.6442 81.6332 66.8193C81.8667 66.9983 82.0535 67.2396 82.1858 67.5353C82.322 67.8311 82.392 68.1969 82.392 68.6366V71.7615H80.6798L80.5513 71.0571C80.384 71.3256 80.1583 71.528 79.882 71.6836C79.5979 71.8198 79.2555 71.8977 78.8624 71.8977ZM79.5357 70.6835C79.8003 70.6835 80.0065 70.6018 80.17 70.4306C80.3218 70.271 80.4035 70.0298 80.4035 69.7184V69.5861H79.7419C79.1854 69.5861 78.9091 69.7807 78.9091 70.1737C78.9091 70.3333 78.9636 70.4578 79.0726 70.5473C79.1699 70.6446 79.3216 70.6835 79.5357 70.6835Z" fill="#545454"/>
<path d="M85.8 71.905C85.3798 71.905 84.9945 71.8544 84.6559 71.7416C84.3174 71.6365 84.0216 71.477 83.7804 71.2513C83.5391 71.0294 83.3523 70.7415 83.2278 70.3874C83.0993 70.0371 83.0293 69.6091 83.0293 69.1109C83.0293 68.1342 83.2784 67.422 83.7881 66.9745C84.2979 66.5231 84.9945 66.3052 85.8973 66.3052C86.4577 66.3052 86.9325 66.3908 87.3099 66.5815C87.6913 66.7605 87.9987 67.0601 88.2283 67.4726L86.8352 68.4844C86.7301 68.2587 86.6017 68.1069 86.4577 68.0291C86.3176 67.9474 86.1386 67.9007 85.9324 67.9007C85.6171 67.9007 85.3875 67.9824 85.2202 68.1536C85.049 68.321 84.9712 68.644 84.9712 69.1109C84.9712 69.5079 85.0412 69.8231 85.1735 70.0488C85.3058 70.2706 85.5588 70.3874 85.909 70.3874C86.4149 70.3874 86.734 70.1811 86.8974 69.7803L88.275 70.5664C88.0493 70.9944 87.738 71.3252 87.3372 71.547C86.9441 71.7883 86.4344 71.905 85.8 71.905Z" fill="#545454"/>
<path d="M88.7617 64.3833H90.8086L90.7464 68.6717L92.408 66.473H94.5678L92.6415 68.8157L94.5951 71.7616H92.373L91.3106 70.1194L90.7736 70.7264V71.7538H88.7617V64.3833Z" fill="#545454"/>
<path d="M95.2207 64.3833H99.1511C99.5675 64.3833 99.9372 64.4456 100.249 64.5701C100.56 64.6946 100.817 64.862 101.031 65.0877C101.245 65.3095 101.4 65.5819 101.505 65.8932C101.614 66.2045 101.669 66.547 101.669 66.9167C101.669 67.4459 101.572 67.8934 101.361 68.2592C101.167 68.625 100.883 68.913 100.517 69.1154L101.716 71.7616H99.3885L98.4623 69.5201H97.2988V71.7616H95.2207V64.3833ZM97.2988 66.1072V67.8389H98.6763C98.941 67.8389 99.1511 67.7689 99.3107 67.6171C99.4624 67.4654 99.5442 67.2513 99.5442 66.9556C99.5442 66.7221 99.4819 66.5236 99.3535 66.3563C99.2328 66.189 99.0149 66.1072 98.7114 66.1072H97.2988Z" fill="#545454"/>
<path d="M102.143 69.1114C102.143 68.6366 102.201 68.2124 102.337 67.8661C102.473 67.5197 102.656 67.224 102.905 66.9983C103.158 66.7765 103.462 66.5975 103.808 66.4885C104.166 66.3756 104.567 66.3212 105.014 66.3212C105.98 66.3212 106.703 66.5469 107.186 66.9905C107.657 67.438 107.902 68.1424 107.902 69.1114C107.902 70.0375 107.657 70.738 107.166 71.2011C106.676 71.6642 105.964 71.9055 105.014 71.9055C103.096 71.9055 102.143 70.9754 102.143 69.1114ZM105.98 69.1153C105.98 68.6716 105.91 68.3409 105.758 68.1346C105.614 67.9284 105.365 67.8194 105.026 67.8194C104.676 67.8194 104.427 67.9284 104.271 68.1346C104.123 68.3409 104.053 68.6716 104.053 69.1153C104.053 69.5861 104.131 69.913 104.283 70.1193C104.435 70.3255 104.684 70.4306 105.014 70.4306C105.353 70.4306 105.598 70.3255 105.75 70.1193C105.898 69.913 105.98 69.5861 105.98 69.1153Z" fill="#545454"/>
<path d="M111.132 71.905C110.716 71.905 110.327 71.8544 109.992 71.7416C109.649 71.6365 109.354 71.477 109.116 71.2513C108.875 71.0294 108.688 70.7415 108.56 70.3874C108.435 70.0371 108.365 69.6091 108.365 69.1109C108.365 68.1342 108.614 67.422 109.124 66.9745C109.634 66.5231 110.327 66.3052 111.229 66.3052C111.794 66.3052 112.265 66.3908 112.642 66.5815C113.023 66.7605 113.331 67.0601 113.564 67.4726L112.167 68.4844C112.062 68.2587 111.938 68.1069 111.794 68.0291C111.654 67.9474 111.475 67.9007 111.264 67.9007C110.953 67.9007 110.72 67.9824 110.552 68.1536C110.385 68.321 110.303 68.644 110.303 69.1109C110.303 69.5079 110.373 69.8231 110.506 70.0488C110.642 70.2706 110.895 70.3874 111.241 70.3874C111.751 70.3874 112.07 70.1811 112.229 69.7803L113.607 70.5664C113.381 70.9944 113.07 71.3252 112.669 71.547C112.276 71.7883 111.766 71.905 111.132 71.905Z" fill="#545454"/>
<path d="M114.096 64.3833H116.143L116.08 68.6717L117.738 66.473H119.898L117.972 68.8157L119.929 71.7616H117.703L116.641 70.1194L116.108 70.7264V71.7538H114.096V64.3833Z" fill="#545454"/>
<defs>
<clipPath id="clip0_20827_81879">
<rect width="144.986" height="37.9963" fill="white" transform="translate(22.9961 33.9954)"/>
</clipPath>
</defs>
</svg>
